<?xml version="1.0" encoding="utf-8"?>
<!-- Generator: Adobe Illustrator 21.1.0, SVG Export Plug-In . SVG Version: 6.00 Build 0)  -->
<svg version="1.1" id="Слой_1" xmlns="http://www.w3.org/2000/svg" xmlns:xlink="http://www.w3.org/1999/xlink" x="0px" y="0px"
	 viewBox="0 0 43 45" style="enable-background:new 0 0 43 45;" xml:space="preserve">
<g id="Слой_x0020_1">
	<g id="_1123549152">
		<path d="M28.944,34.674c1.059,0,2.02,0.432,2.715,1.126c0.694,0.694,1.126,1.655,1.126,2.715c0,1.059-0.432,2.02-1.126,2.715
			c-0.697,0.693-1.658,1.125-2.715,1.125c-1.057,0-2.018-0.432-2.712-1.125c-0.696-0.697-1.127-1.658-1.127-2.715
			c0-1.057,0.432-2.018,1.125-2.712C26.924,35.105,27.885,34.674,28.944,34.674z M30.474,36.984c-0.39-0.39-0.933-0.634-1.53-0.634
			c-0.597,0-1.14,0.244-1.53,0.634c-0.389,0.389-0.633,0.932-0.633,1.53s0.243,1.14,0.63,1.53c0.392,0.39,0.935,0.633,1.533,0.633
			s1.142-0.244,1.531-0.631c0.389-0.391,0.633-0.935,0.633-1.531C31.108,37.917,30.864,37.374,30.474,36.984z"/>
		<path d="M6.468,34.674c1.059,0,2.02,0.432,2.715,1.126s1.126,1.655,1.126,2.715c0,1.059-0.432,2.02-1.126,2.715
			c-0.697,0.693-1.658,1.125-2.715,1.125s-2.018-0.432-2.712-1.125c-0.696-0.697-1.127-1.658-1.127-2.715
			c0-1.057,0.432-2.018,1.125-2.712C4.448,35.105,5.409,34.674,6.468,34.674z M7.999,36.984c-0.39-0.39-0.933-0.634-1.53-0.634
			s-1.14,0.244-1.53,0.634c-0.389,0.389-0.633,0.932-0.633,1.53s0.243,1.14,0.63,1.53c0.392,0.39,0.935,0.633,1.533,0.633
			S7.61,40.433,8,40.046c0.389-0.391,0.633-0.935,0.633-1.531C8.633,37.917,8.389,37.374,7.999,36.984z"/>
		<path d="M6.468,32.045c1.786,0,3.404,0.725,4.574,1.895s1.895,2.788,1.895,4.574c0,1.782-0.727,3.402-1.897,4.572
			c-1.169,1.171-2.787,1.897-4.573,1.897c-1.782,0-3.401-0.725-4.571-1.895C0.725,41.915,0,40.297,0,38.514
			c0-1.786,0.725-3.404,1.895-4.574C3.067,32.771,4.686,32.045,6.468,32.045z M9.859,35.124c-0.867-0.867-2.065-1.403-3.39-1.403
			c-1.326,0-2.526,0.536-3.389,1.401c-0.867,0.869-1.403,2.068-1.403,3.392c0,1.326,0.536,2.526,1.401,3.389
			c0.866,0.867,2.065,1.403,3.391,1.403c1.325,0,2.523-0.536,3.39-1.403c0.867-0.863,1.403-2.063,1.403-3.389
			C11.262,37.19,10.725,35.991,9.859,35.124z"/>
		<path d="M28.944,32.045c1.786,0,3.404,0.725,4.574,1.895s1.895,2.788,1.895,4.574c0,1.782-0.726,3.402-1.897,4.572
			c-1.169,1.171-2.787,1.897-4.573,1.897c-1.786,0-3.404-0.725-4.574-1.895c-1.169-1.171-1.895-2.791-1.895-4.573
			c0-1.786,0.725-3.404,1.895-4.574C25.54,32.77,27.158,32.045,28.944,32.045z M32.334,35.124c-0.867-0.867-2.065-1.403-3.39-1.403
			c-1.325,0-2.523,0.536-3.39,1.403c-0.867,0.867-1.403,2.065-1.403,3.39c0,1.326,0.536,2.526,1.401,3.389
			c0.869,0.867,2.068,1.403,3.392,1.403c1.325,0,2.523-0.536,3.39-1.403c0.867-0.863,1.403-2.063,1.403-3.389
			C33.737,37.19,33.201,35.991,32.334,35.124z"/>
		<path d="M12.665,0.017h9.12c0.463,0,0.838,0.376,0.838,0.838c0,0.126-0.027,0.245-0.077,0.352l-4.491,12.522h16.662
			c0.462,0,0.838,0.376,0.838,0.838v1.549c0,3.48-1.426,6.648-3.719,8.943l-0.018,0.018c-2.294,2.284-5.453,3.704-8.927,3.704
			H12.665c-3.482,0-6.648-1.426-8.943-3.719l-0.018-0.018C1.42,22.751,0,19.592,0,16.117v-3.435C0,9.198,1.426,6.03,3.719,3.737
			C6.014,1.442,9.181,0.017,12.665,0.017z M20.597,1.694h-7.932c-3.023,0-5.769,1.235-7.761,3.227
			C2.914,6.91,1.677,9.659,1.677,12.682v3.435c0,3.023,1.238,5.772,3.226,7.762c1.991,1.988,4.74,3.226,7.762,3.226h10.226
			c3.023,0,5.772-1.238,7.762-3.226c1.988-1.991,3.226-4.741,3.226-7.762v-0.711H16.867c-0.094-0.004-0.189-0.019-0.282-0.052
			c-0.434-0.155-0.659-0.634-0.504-1.068L20.597,1.694z"/>
		<path d="M0.838,15.366c-0.44,0-0.798-0.358-0.798-0.798s0.358-0.798,0.798-0.798h33.503l3.539-4.332
			c0.157-0.193,0.386-0.293,0.617-0.294l3.705-0.002C42.642,9.142,43,9.5,43,9.94c0,0.44-0.358,0.798-0.798,0.798h-3.329
			l-3.504,4.289c-0.144,0.204-0.383,0.339-0.652,0.339H0.838z"/>
		<path d="M34.53,19.045H19.532c-0.964,0-1.841-0.395-2.474-1.028s-1.028-1.512-1.028-2.476V0.856h1.676V15.54
			c0,0.503,0.207,0.962,0.536,1.291c0.329,0.329,0.788,0.536,1.29,0.536H34.53V19.045z"/>
		<polygon points="12.177,27.167 25.266,33.881 24.508,35.367 11.419,28.653 		"/>
		<polygon points="24.137,28.653 11.048,35.367 10.289,33.881 23.378,27.167 		"/>
		<polygon points="11.655,35.48 23.74,35.48 23.74,37.156 11.655,37.156 		"/>
	</g>
</g>
</svg>
