<?xml version="1.0" encoding="utf-8"?>
<!-- Generator: Adobe Illustrator 21.1.0, SVG Export Plug-In . SVG Version: 6.00 Build 0)  -->
<svg version="1.1" id="Layer_1" xmlns="http://www.w3.org/2000/svg" xmlns:xlink="http://www.w3.org/1999/xlink" x="0px" y="0px"
	 viewBox="0 0 512.001 512.001" style="enable-background:new 0 0 512.001 512.001;" xml:space="preserve">
<g>
	<g>
		<g>
			<circle cx="214.336" cy="398.787" r="8.89"/>
			<path d="M503.676,367.625H286.075v-14.952h205.347l0,0c11.347,0,20.578-9.231,20.578-20.578V80.514
				c0-11.347-9.231-20.579-20.578-20.579h-67.578V45.54h30.916c7.968,0,14.452-6.483,14.452-14.452V14.743
				c0-7.968-6.483-14.451-14.452-14.451h-78.493c-7.968,0-14.452,6.482-14.452,14.451v16.345c0,7.969,6.483,14.452,14.452,14.452
				h30.927v14.395H264.325V45.54h30.918c7.969,0,14.452-6.483,14.452-14.452V14.743c0-7.968-6.483-14.451-14.452-14.451H216.75
				c-7.969,0-14.452,6.482-14.452,14.451v16.345c0,7.969,6.483,14.452,14.452,14.452h30.925v14.395h-142.87V45.54h30.919
				c7.969,0,14.452-6.483,14.452-14.452V14.743c0-7.968-6.483-14.451-14.452-14.451H57.233c-7.968,0-14.452,6.482-14.452,14.451
				v16.345c0,7.969,6.483,14.452,14.452,14.452h30.923v14.395H20.578C9.231,59.936,0,69.167,0,80.514v251.581
				c0,11.347,9.231,20.578,20.578,20.578h205.354v14.952H8.331c-4.597,0-8.325,3.727-8.325,8.325c0,4.597,3.727,8.325,8.325,8.325
				h164.602v28.978c0,9.207,7.491,16.697,16.7,16.697h36.298v73.435c0,4.598,3.726,8.325,8.325,8.325h43.495
				c4.599,0,8.325-3.727,8.325-8.325V429.95h36.299c9.208,0,16.7-7.49,16.7-16.697v-28.978h164.601c4.599,0,8.325-3.727,8.325-8.325
				C512.001,371.352,508.275,367.625,503.676,367.625z M495.352,332.095c0,2.129-1.799,3.928-3.928,3.928H270.255
				c4.303-122.191,102.904-220.789,225.097-225.089V332.095z M378.466,28.891V28.89V16.942h74.096v11.95L378.466,28.891
				L378.466,28.891z M218.949,28.891V28.89V16.942h74.096v11.95L218.949,28.891L218.949,28.891z M59.431,28.891V28.89V16.942h74.096
				v11.95L59.431,28.891L59.431,28.891z M20.578,336.023L20.578,336.023c-2.129,0-3.928-1.799-3.928-3.928V80.514
				c0-2.13,1.799-3.929,3.928-3.929h470.844c2.129,0,3.928,1.799,3.928,3.929v13.758c-63.72,2.067-123.325,27.843-168.621,73.138
				c-45.294,45.294-71.068,104.896-73.138,168.612H20.578V336.023z M269.426,352.672v14.952H242.58v-14.952H269.426z
				 M269.426,495.06H242.58v-65.11h26.846V495.06z M322.376,413.299l-132.793-0.047v-28.978h132.831L322.376,413.299z"/>
			<circle cx="297.658" cy="398.787" r="8.89"/>
			<circle cx="255.996" cy="398.787" r="8.89"/>
			<path d="M213.505,139.662H70.185c-4.599,0-8.325,3.727-8.325,8.325c0,4.597,3.726,8.325,8.325,8.325h143.321
				c4.599,0,8.325-3.727,8.325-8.325C221.83,143.389,218.104,139.662,213.505,139.662z"/>
			<path d="M171.448,177.347H70.186c-4.599,0-8.325,3.727-8.325,8.325c0,4.598,3.726,8.325,8.325,8.325h101.263
				c4.599,0,8.325-3.727,8.325-8.325C179.773,181.074,176.047,177.347,171.448,177.347z"/>
		</g>
	</g>
</g>
</svg>
