<?xml version="1.0" encoding="utf-8"?>
<!-- Generator: Adobe Illustrator 21.1.0, SVG Export Plug-In . SVG Version: 6.00 Build 0)  -->
<svg version="1.1" id="Слой_1" xmlns="http://www.w3.org/2000/svg" xmlns:xlink="http://www.w3.org/1999/xlink" x="0px" y="0px"
	 viewBox="0 0 45 45" style="enable-background:new 0 0 45 45;" xml:space="preserve">
<g id="Слой_x0020_1">
	<path d="M21.598,14.968h1.804c0.425,0,0.771,0.346,0.771,0.771v1.013c0,0.418-0.346,0.765-0.771,0.765h-1.804
		c-0.425,0-0.771-0.346-0.771-0.765V15.74C20.827,15.315,21.173,14.968,21.598,14.968z M8.698,33.979
		c-0.66,0-1.261-0.274-1.693-0.706C6.568,32.842,6.3,32.24,6.3,31.58c0-0.98,0.804-2.228,1.438-3.222l0.32-0.497
		c0.216-0.353,0.68-0.464,1.033-0.242c0.091,0.052,0.163,0.124,0.222,0.203c0.314,0.438,0.745,1.072,1.091,1.712
		c0.392,0.706,0.693,1.444,0.693,2.045c0,0.66-0.268,1.255-0.706,1.693l0,0C9.953,33.704,9.358,33.979,8.698,33.979z M8.071,32.208
		c0.157,0.157,0.379,0.255,0.627,0.255c0.242,0,0.464-0.098,0.627-0.255l0,0c0.157-0.163,0.255-0.386,0.255-0.627
		c0-0.307-0.216-0.81-0.497-1.32c-0.118-0.216-0.242-0.425-0.366-0.627c-0.457,0.725-0.908,1.503-0.908,1.947
		C7.809,31.822,7.907,32.044,8.071,32.208z M29.375,31.724c0.346,0.242,0.431,0.712,0.19,1.052c-0.235,0.346-0.706,0.425-1.052,0.19
		c-1.444-1.006-1.196-2.196-0.935-3.411c0.131-0.621,0.261-1.248-0.026-1.666c-0.242-0.34-0.157-0.81,0.19-1.052
		c0.196-0.137,0.444-0.17,0.66-0.098c0.745,0.196,1.372,0.601,1.856,1.117l0.052,0.065c0.176-0.261,0.366-0.497,0.555-0.725
		c0.34-0.405,0.647-0.778,0.523-1.216c-0.111-0.399,0.124-0.817,0.529-0.928c0.203-0.059,0.412-0.02,0.582,0.078
		c1.882,1.111,1.764,2.3,1.516,3.248c0.281-0.118,0.516-0.346,0.516-1.039c0-0.418,0.333-0.758,0.752-0.758
		c0.32,0,0.588,0.196,0.699,0.471c0.569,1.137,0.928,2.274,0.863,3.294c-0.065,1.163-0.627,2.137-1.915,2.79
		c-0.372,0.19-0.823,0.039-1.013-0.333c-0.19-0.372-0.039-0.823,0.333-1.013c0.732-0.372,1.052-0.908,1.091-1.529
		c0.013-0.255-0.013-0.536-0.072-0.823c-0.307,0.235-0.68,0.346-1.046,0.464c-0.183,0.052-0.359,0.105-0.451,0.176
		c-0.229,0.157-0.536,0.183-0.797,0.046c-0.863-0.477-0.712-1.072-0.503-1.823l0.013-0.039c0.065-0.242,0.144-0.523,0.091-0.823
		c-0.157,0.248-0.353,0.484-0.549,0.719c-0.392,0.477-0.817,0.993-0.732,1.771c0.046,0.386-0.216,0.745-0.608,0.823
		c-0.405,0.078-0.804-0.19-0.882-0.601s-0.281-0.836-0.588-1.189c-0.039,0.301-0.105,0.608-0.163,0.908
		C28.898,30.587,28.754,31.293,29.375,31.724z M35.282,34.776L35.282,34.776c0,0.412-0.34,0.752-0.752,0.752h-4.829
		c-0.418,0-0.758-0.34-0.758-0.752l0,0c0-0.418,0.34-0.758,0.758-0.758h4.829C34.943,34.018,35.282,34.358,35.282,34.776z
		 M23.258,19.033v3.411c0,1.359-1.124,2.477-2.483,2.477h-0.66c-0.418,0-0.758-0.34-0.758-0.752c0-0.418,0.34-0.758,0.758-0.758
		h0.66c0.529,0,0.967-0.438,0.967-0.967v-3.411h-0.15c-1.17,0-2.137-0.895-2.261-2.032h-0.013c-0.536,0-0.974,0.438-0.974,0.967
		v7.973v0.745v7.973c0,1.366-1.117,2.483-2.477,2.483h-0.699v7.117c0,0.386-0.314,0.706-0.699,0.706H3.071
		c-0.386,0-0.699-0.32-0.699-0.706V24.987H1.51v13.802c0,0.418-0.34,0.758-0.752,0.758l0,0C0.34,39.547,0,39.207,0,38.788V21.026
		c0-0.418,0.34-0.758,0.758-0.758h1.614v-1.529c0-1.104,0.738-2.052,1.745-2.366V0.794c0-0.418,0.34-0.758,0.758-0.758l0,0
		c0.412,0,0.752,0.34,0.752,0.758v15.468h0.778V0.794c0-0.418,0.34-0.758,0.758-0.758l0,0c0.418,0,0.758,0.34,0.758,0.758v15.468
		H9.62V0.794c0-0.418,0.34-0.758,0.758-0.758l0,0c0.412,0,0.752,0.34,0.752,0.758v15.468h0.784V0.794
		c0-0.418,0.34-0.758,0.752-0.758l0,0c0.418,0,0.758,0.34,0.758,0.758v15.579c1.006,0.314,1.745,1.261,1.745,2.366v4.738
		c0.451,0,0.823,0.372,0.823,0.823l0,0c0,0.451-0.372,0.817-0.823,0.817v10.508h0.699c0.529,0,0.967-0.438,0.967-0.967v-7.973
		v-0.745v-7.973c0-1.366,1.117-2.477,2.483-2.477h0.013c0.124-1.144,1.091-2.032,2.261-2.032h1.81c1.17,0,2.143,0.889,2.268,2.032
		h8.195v-4.117h-8.13c-1.359,0-2.477-1.117-2.477-2.477V8.133c-1.366-0.15-2.431-1.307-2.431-2.705V2.761
		c0-1.503,1.222-2.725,2.719-2.725h0.928c1.497,0,2.719,1.222,2.719,2.725v2.666c0,1.398-1.065,2.555-2.424,2.705v0.765
		c0,0.529,0.438,0.967,0.967,0.967h8.13V0.794c0-0.418,0.34-0.758,0.758-0.758l0,0c0.412,0,0.758,0.34,0.758,0.758v18.638h0.823
		V0.794c0-0.418,0.34-0.758,0.758-0.758l0,0c0.412,0,0.752,0.34,0.752,0.758v18.795v0.033c0.902,0.379,1.529,1.268,1.529,2.294
		V37.24h1.634c0.529,0,0.967-0.431,0.967-0.967v-1.738c-0.993-0.307-1.725-1.235-1.725-2.326v-1.34c0-1.078,0.712-2,1.686-2.32
		V0.794c0-0.418,0.34-0.758,0.752-0.758l0,0c0.418,0,0.758,0.34,0.758,0.758v11.443h0.928c0.418,0,0.758,0.34,0.758,0.752l0,0
		c0,0.418-0.34,0.758-0.758,0.758h-0.928v14.802C44.288,28.868,45,29.79,45,30.868v1.34c0,1.059-0.693,1.967-1.647,2.3v1.764
		c0,1.366-1.117,2.483-2.477,2.483h-1.634v3.196c0,0.386-0.314,0.706-0.699,0.706h-0.046v1.601c0,0.386-0.314,0.706-0.699,0.706
		h-3.313c-0.386,0-0.699-0.32-0.699-0.706v-1.601h-3.437v1.601c0,0.386-0.314,0.706-0.699,0.706h-3.313
		c-0.386,0-0.699-0.32-0.699-0.706v-1.601h-0.046c-0.386,0-0.699-0.32-0.699-0.706V21.915c0-1.366,1.117-2.483,2.477-2.483h6.496
		v-2.431h-8.195c-0.124,1.137-1.098,2.032-2.268,2.032H23.258z M23.552,1.546h0.921c0.667,0,1.209,0.549,1.209,1.216v2.666
		c0,0.667-0.542,1.209-1.209,1.209h-0.921c-0.667,0-1.216-0.542-1.216-1.209V2.761C22.337,2.094,22.886,1.546,23.552,1.546z
		 M42.556,29.94h0.007c0.51,0,0.921,0.418,0.921,0.928v1.333c0,0.516-0.412,0.928-0.921,0.928h-0.007
		c-0.51,0-0.921-0.412-0.921-0.928v-1.333C41.634,30.358,42.046,29.94,42.556,29.94z M2.372,23.477v-1.699H1.51v1.699H2.372z
		 M27.146,42.657v0.791h1.693v-0.791H27.146z M35.296,42.657v0.791h1.693v-0.791H35.296z M37.733,21.915
		c0-0.536-0.438-0.974-0.967-0.974h-9.397c-0.529,0-0.967,0.438-0.967,0.974v19.226h11.332V21.915z M13.658,18.739
		c0-0.536-0.438-0.967-0.974-0.967H4.849c-0.529,0-0.967,0.438-0.967,0.967v24.709h9.776V18.739z"/>
</g>
</svg>
