<?xml version="1.0" encoding="utf-8"?>
<!-- Generator: Adobe Illustrator 21.1.0, SVG Export Plug-In . SVG Version: 6.00 Build 0)  -->
<svg version="1.1" id="Слой_1" xmlns="http://www.w3.org/2000/svg" xmlns:xlink="http://www.w3.org/1999/xlink" x="0px" y="0px"
	 viewBox="0 0 512 512" style="enable-background:new 0 0 512 512;" xml:space="preserve">
<path d="M76,270c3.84,0,7.676-1.465,10.605-4.395L196,156.211l49.395,49.395c5.859,5.859,15.352,5.859,21.211,0L421,51.211V75
	c0,8.289,6.711,15,15,15s15-6.711,15-15V15c0-0.492-0.027-0.988-0.074-1.477c-0.023-0.246-0.07-0.484-0.105-0.723
	c-0.035-0.242-0.063-0.484-0.109-0.723c-0.055-0.293-0.137-0.574-0.207-0.859c-0.051-0.184-0.09-0.371-0.145-0.555
	c-0.09-0.301-0.199-0.59-0.309-0.883c-0.063-0.164-0.113-0.332-0.18-0.492c-0.125-0.301-0.27-0.594-0.41-0.883
	c-0.07-0.148-0.137-0.297-0.211-0.441c-0.172-0.32-0.359-0.625-0.551-0.93c-0.066-0.109-0.125-0.219-0.195-0.324
	c-0.27-0.402-0.555-0.793-0.859-1.168c-0.004-0.004-0.004-0.008-0.008-0.012c-0.648-0.793-1.375-1.52-2.168-2.168
	c-0.004-0.004-0.008-0.004-0.012-0.008c-0.375-0.305-0.766-0.59-1.168-0.859c-0.105-0.07-0.215-0.129-0.324-0.195
	c-0.305-0.191-0.609-0.379-0.93-0.551c-0.145-0.078-0.293-0.141-0.441-0.211c-0.289-0.145-0.582-0.285-0.883-0.41
	c-0.16-0.066-0.328-0.117-0.492-0.18c-0.293-0.109-0.582-0.219-0.883-0.309c-0.184-0.055-0.371-0.094-0.555-0.145
	c-0.285-0.07-0.566-0.152-0.859-0.207c-0.238-0.047-0.48-0.074-0.723-0.109c-0.238-0.035-0.477-0.082-0.723-0.105
	C436.988,0.027,436.492,0,436,0h-60c-8.289,0-15,6.711-15,15s6.711,15,15,15h23.789L256,173.789l-49.395-49.395
	c-5.859-5.859-15.352-5.859-21.211,0l-120,120c-5.859,5.859-5.859,15.352,0,21.211C68.324,268.535,72.16,270,76,270z"/>
<path d="M0,497c0,8.289,6.711,15,15,15h120c8.289,0,15-6.711,15-15v-21H0V497z"/>
<path d="M135,410H15c-8.289,0-15,6.711-15,15v21h150v-21C150,416.711,143.289,410,135,410z"/>
<path d="M181,497c0,8.289,6.711,15,15,15h120c8.289,0,15-6.711,15-15v-21H181V497z"/>
<path d="M362,410h150v36H362V410z"/>
<path d="M497,212H377c-8.289,0-15,6.711-15,15v21h150v-21C512,218.711,505.289,212,497,212z"/>
<path d="M362,278h150v36H362V278z"/>
<path d="M362,344h150v36H362V344z"/>
<path d="M362,497c0,8.289,6.711,15,15,15h120c8.289,0,15-6.711,15-15v-21H362V497z"/>
<path d="M181,410h150v36H181V410z"/>
<path d="M316,344H196c-8.289,0-15,6.711-15,15v21h150v-21C331,350.711,324.289,344,316,344z"/>
</svg>
