<?xml version="1.0" encoding="utf-8"?>
<!-- Generator: Adobe Illustrator 21.1.0, SVG Export Plug-In . SVG Version: 6.00 Build 0)  -->
<svg version="1.1" id="Слой_1" xmlns="http://www.w3.org/2000/svg" xmlns:xlink="http://www.w3.org/1999/xlink" x="0px" y="0px"
	 viewBox="0 0 35 47" style="enable-background:new 0 0 35 47;" xml:space="preserve">
<g id="Слой_x0020_1">
	<g id="_1242220512">
		<path d="M1.59,46.007V10.214c0-0.314,0.129-0.602,0.335-0.808c0.206-0.206,0.494-0.335,0.808-0.335h25.321
			c0.314,0,0.602,0.129,0.808,0.335c0.207,0.214,0.335,0.495,0.335,0.808v35.793h-1.652V10.722H3.242v35.285H1.59z"/>
		<path d="M0.826,46.833C0.37,46.833,0,46.463,0,46.007c0-0.456,0.37-0.826,0.826-0.826h29.137c0.456,0,0.826,0.37,0.826,0.826
			c0,0.456-0.37,0.826-0.826,0.826H0.826z"/>
		<polygon points="16.219,9.071 16.219,46.007 14.568,46.007 14.568,9.071 		"/>
		<path d="M15.394,0.167c1.801,0,3.431,0.731,4.611,1.911s1.911,2.81,1.911,4.611c0,0.456-0.37,0.826-0.826,0.826H9.698
			c-0.456,0-0.826-0.37-0.826-0.826V6.668c0.006-1.792,0.736-3.415,1.911-4.59C11.962,0.898,13.595,0.167,15.394,0.167z
			 M18.838,3.245c-0.88-0.88-2.099-1.426-3.444-1.426c-1.345,0-2.564,0.546-3.444,1.426c-0.696,0.696-1.182,1.604-1.355,2.618h9.599
			C20.02,4.848,19.534,3.94,18.838,3.245z"/>
		<path d="M16.219,6.689c0,0.456-0.37,0.826-0.826,0.826c-0.456,0-0.826-0.37-0.826-0.826v-2.63c0-0.456,0.37-0.826,0.826-0.826
			c0.456,0,0.826,0.37,0.826,0.826V6.689z"/>
		<path d="M32.09,26.309c-0.322,0.32-0.845,0.32-1.164-0.002c-0.32-0.322-0.32-0.845,0.002-1.165l1.333-1.332
			c0.322-0.32,0.843-0.32,1.163,0.001l1.333,1.331c0.322,0.322,0.322,0.845,0,1.167c-0.322,0.322-0.845,0.322-1.167,0l-0.75-0.75
			L32.09,26.309z"/>
		<path d="M30.926,30.76c-0.322-0.322-0.322-0.845,0-1.167c0.322-0.322,0.845-0.322,1.167,0l0.75,0.75l0.751-0.75
			c0.322-0.32,0.845-0.32,1.164,0.002c0.32,0.322,0.32,0.845-0.002,1.164l-1.331,1.332c-0.322,0.322-0.845,0.322-1.167,0
			L30.926,30.76z"/>
	</g>
</g>
</svg>
