<?xml version="1.0" encoding="utf-8"?>
<!-- Generator: Adobe Illustrator 21.1.0, SVG Export Plug-In . SVG Version: 6.00 Build 0)  -->
<svg version="1.1" id="Слой_1" xmlns="http://www.w3.org/2000/svg" xmlns:xlink="http://www.w3.org/1999/xlink" x="0px" y="0px"
	 viewBox="0 0 34 45" style="enable-background:new 0 0 34 45;" xml:space="preserve">
<g id="Слой_x0020_1">
	<path d="M25.204,5.505c0,0.506-0.145,0.714-0.386,1.058c-0.13,0.184-0.277,0.394-0.401,0.658C24.229,7.62,24.4,8.094,24.8,8.282
		c0.109,0.051,0.225,0.076,0.338,0.076c0.299,0,0.587-0.17,0.722-0.458c0.066-0.14,0.156-0.27,0.263-0.421
		c0.285-0.407,0.676-0.964,0.676-1.973c0-1.008-0.391-1.566-0.676-1.972c-0.242-0.344-0.386-0.551-0.386-1.057
		c0-0.505,0.145-0.714,0.386-1.057c0.041-0.059,0.081-0.117,0.121-0.177c0.246-0.365,0.149-0.86-0.216-1.106
		c-0.365-0.246-0.86-0.15-1.106,0.216c-0.034,0.051-0.07,0.1-0.105,0.151c-0.285,0.406-0.676,0.963-0.676,1.973
		c0,1.009,0.391,1.566,0.676,1.972C25.059,4.792,25.204,5,25.204,5.505z"/>
	<path d="M15.405,5.505c0,0.506-0.145,0.714-0.386,1.058c-0.129,0.184-0.277,0.394-0.4,0.658c-0.187,0.399-0.015,0.874,0.383,1.061
		c0.109,0.051,0.225,0.076,0.338,0.076c0.299,0,0.587-0.17,0.722-0.458c0.066-0.14,0.157-0.27,0.263-0.421
		c0.285-0.407,0.676-0.964,0.676-1.972c0-1.01-0.391-1.567-0.676-1.973c-0.242-0.344-0.386-0.551-0.386-1.057
		c0-0.505,0.145-0.714,0.386-1.057c0.041-0.059,0.081-0.117,0.121-0.177c0.246-0.365,0.15-0.86-0.215-1.106
		c-0.365-0.246-0.861-0.15-1.106,0.216c-0.035,0.051-0.07,0.101-0.105,0.151c-0.285,0.406-0.676,0.963-0.676,1.973
		c0,1.009,0.391,1.566,0.676,1.972C15.261,4.792,15.405,5,15.405,5.505L15.405,5.505z"/>
	<path d="M5.607,5.505c0,0.506-0.145,0.714-0.386,1.058C5.091,6.747,4.944,6.957,4.82,7.221C4.633,7.62,4.805,8.094,5.203,8.282
		c0.109,0.051,0.225,0.076,0.338,0.076c0.299,0,0.587-0.17,0.722-0.458c0.066-0.14,0.157-0.27,0.263-0.421
		c0.285-0.407,0.676-0.964,0.676-1.972c0-1.01-0.391-1.567-0.676-1.973C6.285,3.189,6.14,2.982,6.14,2.476
		c0-0.505,0.145-0.714,0.386-1.057c0.041-0.059,0.082-0.117,0.121-0.177c0.246-0.365,0.15-0.86-0.216-1.106
		c-0.365-0.246-0.86-0.15-1.106,0.216c-0.034,0.051-0.07,0.1-0.105,0.151C4.936,0.909,4.545,1.467,4.545,2.476
		c0,1.009,0.391,1.566,0.676,1.972C5.463,4.792,5.607,5,5.607,5.505L5.607,5.505z"/>
	<path d="M31.832,11.991c-0.891,0-1.654,0.551-1.97,1.329h-1.273c-0.441,0-0.798,0.357-0.798,0.797c0,0.441,0.357,0.798,0.798,0.798
		h1.273c0.316,0.778,1.079,1.329,1.97,1.329c1.172,0,2.125-0.954,2.125-2.126C33.957,12.945,33.004,11.991,31.832,11.991
		L31.832,11.991z M31.832,14.648c-0.294,0-0.533-0.238-0.533-0.531c0-0.293,0.239-0.531,0.533-0.531
		c0.292,0,0.531,0.238,0.531,0.531C32.363,14.41,32.124,14.648,31.832,14.648z"/>
	<path d="M31.299,40.904v-1.272c0-0.441-0.357-0.798-0.796-0.798c-0.441,0-0.797,0.357-0.797,0.798v1.272
		c-0.779,0.316-1.329,1.079-1.329,1.97c0,1.172,0.953,2.126,2.126,2.126c1.172,0,2.125-0.954,2.125-2.126
		C32.628,41.983,32.077,41.22,31.299,40.904z M30.502,43.405c-0.293,0-0.532-0.238-0.532-0.531c0-0.293,0.239-0.531,0.532-0.531
		c0.292,0,0.531,0.238,0.531,0.531C31.034,43.167,30.795,43.405,30.502,43.405z"/>
	<path d="M21.42,14.914h3.839c0.441,0,0.798-0.357,0.798-0.798c0-0.441-0.357-0.797-0.798-0.797H21.42
		c-0.441,0-0.798,0.357-0.798,0.797C20.622,14.558,20.979,14.914,21.42,14.914z"/>
	<path d="M13.812,27.033h-3.84c-0.441,0-0.797,0.357-0.797,0.797s0.357,0.798,0.797,0.798h3.84c0.441,0,0.797-0.357,0.797-0.798
		S14.252,27.033,13.812,27.033z"/>
	<path d="M14.583,20.975c0,0.439,0.357,0.796,0.798,0.796h3.839c0.441,0,0.798-0.357,0.798-0.796c0-0.441-0.357-0.798-0.798-0.798
		h-3.839C14.94,20.177,14.583,20.534,14.583,20.975z"/>
	<path d="M20.958,27.033h-3.839c-0.441,0-0.798,0.357-0.798,0.797s0.357,0.798,0.798,0.798h3.839c0.441,0,0.798-0.357,0.798-0.798
		S21.398,27.033,20.958,27.033z"/>
	<path d="M30.103,26.197c0.08,0.026,0.16,0.038,0.24,0.038c0.338,0,0.653-0.217,0.76-0.557c0.129-0.411,0.195-0.84,0.195-1.275
		c0-1.155-0.481-2.275-1.32-3.069c-0.319-0.302-0.825-0.29-1.127,0.031c-0.303,0.319-0.289,0.825,0.031,1.127
		c0.531,0.502,0.824,1.181,0.824,1.911c0,0.271-0.041,0.538-0.123,0.794C29.45,25.616,29.682,26.065,30.103,26.197L30.103,26.197z"
		/>
	<path d="M22.527,20.177c-0.441,0-0.798,0.357-0.798,0.798c0,0.439,0.357,0.796,0.798,0.796h3.839c0.441,0,0.798-0.357,0.798-0.796
		c0-0.441-0.357-0.798-0.798-0.798H22.527z"/>
	<path d="M27.852,26.917c-0.251,0.078-0.512,0.117-0.779,0.117h-2.809c-0.441,0-0.797,0.357-0.797,0.797s0.357,0.798,0.797,0.798
		h2.809c0.427,0,0.847-0.064,1.25-0.188c0.422-0.13,0.657-0.576,0.527-0.998C28.72,27.021,28.272,26.786,27.852,26.917
		L27.852,26.917z"/>
	<path d="M29.354,36.803c0.148,0.256,0.416,0.399,0.692,0.399c0.135,0,0.272-0.035,0.398-0.107c0.382-0.22,0.511-0.708,0.292-1.09
		c-0.754-1.304-2.157-2.114-3.663-2.114h-0.245c-0.441,0-0.798,0.357-0.798,0.796c0,0.441,0.357,0.798,0.798,0.798h0.245
		C28.011,35.485,28.885,35.99,29.354,36.803z"/>
	<path d="M6.331,14.117c0,0.441,0.357,0.798,0.797,0.798h3.84c0.441,0,0.797-0.357,0.797-0.798c0-0.441-0.357-0.797-0.797-0.797
		h-3.84C6.688,13.319,6.331,13.676,6.331,14.117z"/>
	<path d="M7.463,27.831c0-0.441-0.357-0.797-0.796-0.797H4.27c-0.602,0-1.183,0.123-1.727,0.369
		c-0.403,0.18-0.582,0.651-0.402,1.053c0.132,0.296,0.423,0.471,0.728,0.471c0.108,0,0.219-0.023,0.325-0.07
		c0.339-0.152,0.7-0.229,1.076-0.229h2.395C7.106,28.628,7.463,28.271,7.463,27.831z"/>
	<path d="M2.705,33.375c-0.677-0.503-1.066-1.274-1.066-2.116c0-0.164,0.015-0.327,0.045-0.487c0.081-0.434-0.204-0.849-0.637-0.931
		c-0.434-0.081-0.85,0.205-0.93,0.638c-0.048,0.256-0.073,0.518-0.073,0.78c0,1.332,0.64,2.602,1.712,3.396
		c0.142,0.106,0.308,0.157,0.474,0.157c0.244,0,0.485-0.111,0.641-0.321C3.132,34.136,3.058,33.636,2.705,33.375L2.705,33.375z"/>
	<path d="M0.765,17.221c0.082,0.028,0.167,0.041,0.251,0.041c0.334,0,0.646-0.212,0.756-0.547c0.316-0.952,1.162-1.651,2.154-1.779
		c0.437-0.058,0.746-0.457,0.688-0.894c-0.057-0.436-0.457-0.744-0.893-0.688c-1.596,0.209-2.955,1.33-3.463,2.859
		C0.12,16.632,0.346,17.083,0.765,17.221L0.765,17.221z"/>
	<path d="M9.23,33.891H5.391c-0.441,0-0.798,0.357-0.798,0.796c0,0.441,0.357,0.798,0.798,0.798H9.23
		c0.441,0,0.798-0.357,0.798-0.798C10.028,34.248,9.671,33.891,9.23,33.891z"/>
	<path d="M16.376,33.891h-3.84c-0.441,0-0.797,0.357-0.797,0.796c0,0.441,0.357,0.798,0.797,0.798h3.84
		c0.441,0,0.797-0.357,0.797-0.798C17.174,34.248,16.817,33.891,16.376,33.891z"/>
	<path d="M14.273,14.914h3.84c0.441,0,0.797-0.357,0.797-0.798c0-0.441-0.357-0.797-0.797-0.797h-3.84
		c-0.441,0-0.797,0.357-0.797,0.797C13.476,14.558,13.833,14.914,14.273,14.914z"/>
	<path d="M7.438,20.975c0,0.439,0.357,0.796,0.797,0.796h3.84c0.44,0,0.797-0.357,0.797-0.796c0-0.441-0.357-0.798-0.797-0.798
		h-3.84C7.795,20.177,7.438,20.534,7.438,20.975z"/>
	<path d="M4.929,20.177H4.27c-0.835,0-1.603-0.384-2.106-1.053C1.9,18.772,1.4,18.701,1.048,18.965
		c-0.352,0.265-0.423,0.765-0.159,1.117c0.807,1.073,2.039,1.69,3.381,1.69h0.659c0.441,0,0.798-0.357,0.798-0.796
		C5.727,20.534,5.369,20.177,4.929,20.177z"/>
	<path d="M23.521,33.891h-3.839c-0.441,0-0.798,0.357-0.798,0.796c0,0.441,0.357,0.798,0.798,0.798h3.839
		c0.441,0,0.798-0.357,0.798-0.798C24.319,34.248,23.962,33.891,23.521,33.891z"/>
</g>
</svg>
