<?xml version="1.0" encoding="utf-8"?>
<!-- Generator: Adobe Illustrator 21.1.0, SVG Export Plug-In . SVG Version: 6.00 Build 0)  -->
<svg version="1.1" id="Слой_1" xmlns="http://www.w3.org/2000/svg" xmlns:xlink="http://www.w3.org/1999/xlink" x="0px" y="0px"
	 viewBox="0 0 512 512" style="enable-background:new 0 0 512 512;" xml:space="preserve">
<path d="M376,8H136c-4.418,0-8,3.582-8,8v480c0,4.418,3.582,8,8,8h240c4.418,0,8-3.582,8-8V16C384,11.582,380.418,8,376,8z M368,488
	H144V24h224V488z"/>
<path d="M312,328h32c4.418,0,8-3.582,8-8V192c0-4.418-3.582-8-8-8h-32c-4.418,0-8,3.582-8,8v128C304,324.418,307.582,328,312,328z
	 M320,200h16v112h-16V200z"/>
<path d="M160,128c2.122,0,4.156-0.844,5.656-2.344l76-76c3.178-3.069,3.266-8.134,0.197-11.312
	c-3.069-3.178-8.134-3.266-11.312-0.197c-0.067,0.064-0.132,0.13-0.197,0.197l-76,76c-3.124,3.125-3.123,8.19,0.002,11.314
	C155.846,127.157,157.879,128,160,128L160,128z"/>
<path d="M237.656,90.344c-3.124-3.123-8.188-3.123-11.312,0l-40,40c-3.178,3.069-3.266,8.134-0.197,11.312
	c3.069,3.178,8.134,3.266,11.312,0.197c0.067-0.064,0.132-0.13,0.197-0.197l40-40C240.779,98.532,240.779,93.468,237.656,90.344z"/>
<path d="M334.344,382.344l-76,76c-3.178,3.07-3.266,8.134-0.196,11.312c3.07,3.178,8.134,3.266,11.312,0.196
	c0.066-0.064,0.132-0.129,0.196-0.196l76-76c3.07-3.178,2.982-8.242-0.196-11.312C342.36,379.349,337.444,379.349,334.344,382.344z"
	/>
<path d="M258.344,421.656c3.124,3.123,8.188,3.123,11.312,0l36-36c3.07-3.178,2.982-8.242-0.196-11.312
	c-3.1-2.995-8.016-2.995-11.116,0l-36,36C255.221,413.468,255.221,418.532,258.344,421.656z"/>
<path d="M242.344,85.656c3.124,3.123,8.188,3.123,11.312,0l8-8c3.069-3.178,2.981-8.243-0.197-11.312
	c-3.1-2.994-8.015-2.994-11.115,0l-8,8C239.221,77.468,239.221,82.532,242.344,85.656L242.344,85.656z"/>
<path d="M253.656,426.344c-3.124-3.123-8.188-3.123-11.312,0l-8,8c-3.178,3.069-3.266,8.134-0.196,11.312
	c3.069,3.178,8.134,3.266,11.312,0.196c0.067-0.064,0.132-0.13,0.196-0.196l8-8C256.779,434.532,256.779,429.468,253.656,426.344z"
	/>
</svg>
