<?xml version="1.0" encoding="utf-8"?>
<!-- Generator: Adobe Illustrator 21.1.0, SVG Export Plug-In . SVG Version: 6.00 Build 0)  -->
<svg version="1.1" id="Слой_1" xmlns="http://www.w3.org/2000/svg" xmlns:xlink="http://www.w3.org/1999/xlink" x="0px" y="0px"
	 viewBox="0 0 511 511" style="enable-background:new 0 0 511 511;" xml:space="preserve">
<path d="M500.022,236.537h-29.941v-59.883h29.941c5.513,0,9.98-4.468,9.98-9.98c0-5.513-4.468-9.98-9.98-9.98h-29.941v-9.98
	c0-5.513-4.472-9.98-9.98-9.98h-39.922c-5.513,0-9.98,4.468-9.98,9.98h-26.331c-5.111-66.897-61.181-119.766-129.364-119.766
	S130.249,79.816,125.134,146.713H98.807c0-5.513-4.468-9.98-9.98-9.98H48.904c-5.513,0-9.98,4.468-9.98,9.98v9.98H8.982
	c-5.513,0-9.98,4.468-9.98,9.98c0,5.513,4.468,9.98,9.98,9.98h29.941v59.883H8.982c-5.513,0-9.98,4.468-9.98,9.98
	s4.468,9.98,9.98,9.98h29.941v9.98c0,5.513,4.468,9.98,9.98,9.98h39.922c5.513,0,9.98-4.468,9.98-9.98h10.979v119.762
	c-5.513,0-9.98,4.468-9.98,9.98v39.922c0,5.513,4.468,9.98,9.98,9.98h9.98v29.941c0,5.513,4.468,9.98,9.98,9.98
	c5.513,0,9.98-4.468,9.98-9.98v-29.941h59.883v29.941c0,5.513,4.468,9.98,9.98,9.98c5.509,0,9.98-4.468,9.98-9.98v-29.941h9.98
	c5.513,0,9.98-4.468,9.98-9.98v-39.922c0-5.513-4.468-9.98-9.98-9.98V284.022c8.078,1.579,16.417,2.417,24.951,2.417
	s16.873-0.838,24.951-2.417v102.218c-5.513,0-9.98,4.468-9.98,9.98v39.922c0,5.513,4.468,9.98,9.98,9.98h9.98v29.941
	c0,5.513,4.468,9.98,9.98,9.98s9.98-4.468,9.98-9.98v-29.941h59.883v29.941c0,5.513,4.468,9.98,9.98,9.98
	c5.513,0,9.98-4.468,9.98-9.98v-29.941h9.98c5.513,0,9.98-4.468,9.98-9.98v-39.922c0-5.513-4.468-9.98-9.98-9.98h-99.805V278.42
	c46.495-17.209,80.522-60.335,84.452-111.746h26.331v79.844h-20.959c-5.513,0-9.98,4.468-9.98,9.98v49.899
	c0,5.513,4.468,9.98,9.98,9.98s9.98-4.468,9.98-9.98v-39.918h10.979c0,5.513,4.468,9.98,9.98,9.98h39.922
	c5.509,0,9.98-4.468,9.98-9.98v-9.98h29.941c5.513,0,9.98-4.468,9.98-9.98S505.535,236.537,500.022,236.537z M389.239,426.162
	h-99.805v-19.961h99.805V426.162z M78.846,256.498H58.885v-99.805h19.961V256.498z M219.571,426.162h-99.805v-19.961h99.805V426.162
	z M209.59,386.241h-79.844V256.498c0-5.513-4.468-9.98-9.98-9.98H98.807v-79.844h26.331c3.93,51.415,37.957,94.538,84.452,111.746
	V386.241z M254.502,266.479c-60.534,0-109.785-49.251-109.785-109.785c0-60.538,49.251-109.785,109.785-109.785
	s109.785,49.247,109.785,109.785C364.288,217.227,315.04,266.479,254.502,266.479z M450.12,256.498h-19.961v-99.805h19.961V256.498z
	"/>
<path d="M254.502,66.869c-49.528,0-89.824,40.296-89.824,89.824c0,29.735,14.69,57.501,39.298,74.269
	c1.719,1.173,3.673,1.735,5.61,1.735c3.189,0,6.324-1.528,8.257-4.363c3.103-4.554,1.926-10.764-2.628-13.867
	c-16.359-11.146-27.08-28.542-29.856-47.793h1.91c5.513,0,9.98-4.468,9.98-9.98s-4.468-9.98-9.98-9.98h-1.906
	c0.795-5.552,2.253-10.889,4.281-15.941l1.641,0.947c1.571,0.908,3.287,1.341,4.979,1.341c3.45,0,6.807-1.793,8.655-4.994
	c2.756-4.772,1.119-10.877-3.653-13.634l-1.614-0.932c3.415-4.327,7.329-8.242,11.657-11.657l0.932,1.614
	c1.848,3.201,5.205,4.99,8.651,4.99c1.692,0,3.411-0.433,4.982-1.337c4.772-2.756,6.409-8.862,3.653-13.634l-0.947-1.641
	c5.053-2.027,10.39-3.485,15.941-4.281v1.906c0,5.513,4.468,9.98,9.98,9.98c5.513,0,9.98-4.468,9.98-9.98v-1.906
	c5.552,0.795,10.885,2.253,15.938,4.281l-0.947,1.641c-2.756,4.772-1.119,10.877,3.653,13.634c1.575,0.908,3.29,1.341,4.982,1.341
	c3.45,0,6.803-1.793,8.651-4.994l0.932-1.614c4.331,3.415,8.242,7.329,11.661,11.657l-1.618,0.932
	c-4.772,2.756-6.405,8.862-3.649,13.634c1.848,3.205,5.201,4.994,8.651,4.994c1.692,0,3.411-0.433,4.979-1.341l1.641-0.947
	c2.027,5.053,3.485,10.39,4.281,15.941h-1.903c-5.513,0-9.98,4.468-9.98,9.98s4.468,9.98,9.98,9.98h1.906
	c-2.776,19.251-13.493,36.639-29.848,47.789c-4.554,3.103-5.731,9.314-2.624,13.867c3.103,4.554,9.314,5.731,13.867,2.628
	c24.6-16.772,39.286-44.534,39.286-74.265C344.327,107.165,304.031,66.869,254.502,66.869z"/>
<path d="M264.483,158.409v-33.15c0-5.513-4.468-9.98-9.98-9.98c-5.513,0-9.98,4.468-9.98,9.98v33.15
	c-11.618,4.121-19.961,15.216-19.961,28.226c0,16.511,13.431,29.941,29.941,29.941s29.941-13.431,29.941-29.941
	C284.444,173.625,276.101,162.529,264.483,158.409z M254.502,196.615c-5.505,0-9.98-4.476-9.98-9.98s4.476-9.98,9.98-9.98
	s9.98,4.476,9.98,9.98S260.007,196.615,254.502,196.615z"/>
<path d="M254.51,226.557h-0.008c-5.513,0-9.977,4.468-9.977,9.98c0,5.513,4.472,9.98,9.984,9.98s9.98-4.468,9.98-9.98
	C264.491,231.024,260.023,226.557,254.51,226.557z"/>
<path d="M389.239,341.328c-5.513,0-9.98,4.472-9.98,9.984s4.468,9.98,9.98,9.98s9.98-4.468,9.98-9.98v-0.008
	C399.22,345.792,394.752,341.328,389.239,341.328z"/>
</svg>
