<?xml version="1.0" encoding="utf-8"?>
<!-- Generator: Adobe Illustrator 21.1.0, SVG Export Plug-In . SVG Version: 6.00 Build 0)  -->
<svg version="1.1" id="Слой_1" xmlns="http://www.w3.org/2000/svg" xmlns:xlink="http://www.w3.org/1999/xlink" x="0px" y="0px"
	 viewBox="0 0 40 30" style="enable-background:new 0 0 40 30;" xml:space="preserve">
<g id="Слой_x0020_1">
	<g id="_1392009168">
		<path d="M0.809,0.714h32.38l0.455,0.194l0.195,0.455v27.966l-0.195,0.455l-0.455,0.195H0.648l-0.455-0.195L0,29.328V1.362
			l0.194-0.455l0.455-0.194H0.809z M32.244,2.308H1.594v26.075h30.65V2.308z"/>
		<polygon points="6.201,1.511 6.201,29.18 4.606,29.18 4.606,1.511 		"/>
		<polygon points="1.075,5.531 32.763,5.531 32.763,7.126 1.075,7.126 		"/>
		<path d="M39.203,2.784C39.642,2.784,40,3.142,40,3.581s-0.358,0.797-0.797,0.797h-5.946c-0.439,0-0.797-0.358-0.797-0.797
			s0.358-0.797,0.797-0.797H39.203z"/>
		<path d="M39.203,26.313c0.439,0,0.797,0.358,0.797,0.797c0,0.439-0.358,0.797-0.797,0.797h-5.79c-0.439,0-0.797-0.358-0.797-0.797
			c0-0.439,0.358-0.797,0.797-0.797H39.203z"/>
		<path d="M38.135,0.023c0.439,0,0.797,0.358,0.797,0.797c0,0.439-0.358,0.797-0.797,0.797h-2.388c-0.439,0-0.797-0.358-0.797-0.797
			c0-0.439,0.358-0.797,0.797-0.797H38.135z"/>
		<path d="M36.144,0.82c0-0.439,0.358-0.797,0.797-0.797c0.439,0,0.797,0.358,0.797,0.797v2.347c0,0.439-0.358,0.797-0.797,0.797
			c-0.439,0-0.797-0.358-0.797-0.797V0.82z"/>
		<polygon points="10.807,1.511 10.807,29.18 9.212,29.18 9.212,1.511 		"/>
		<polygon points="15.413,1.511 15.413,29.18 13.819,29.18 13.819,1.511 		"/>
		<polygon points="20.02,1.511 20.02,29.18 18.425,29.18 18.425,1.511 		"/>
		<polygon points="24.626,1.511 24.626,29.18 23.031,29.18 23.031,1.511 		"/>
		<polygon points="29.232,1.511 29.232,29.18 27.637,29.18 27.637,1.511 		"/>
	</g>
</g>
</svg>
