<?xml version="1.0" encoding="utf-8"?>
<!-- Generator: Adobe Illustrator 21.1.0, SVG Export Plug-In . SVG Version: 6.00 Build 0)  -->
<svg version="1.1" id="Слой_1" xmlns="http://www.w3.org/2000/svg" xmlns:xlink="http://www.w3.org/1999/xlink" x="0px" y="0px"
	 viewBox="0 0 512 512" style="enable-background:new 0 0 512 512;" xml:space="preserve">
<title>pipes-Industry-pipeline-plumbing-water</title>
<g id="Expand">
	<path d="M448,24h-24c0-4.418-3.582-8-8-8h-48c-4.418,0-8,3.582-8,8v8.2c-90.859,4.241-163.559,76.941-167.8,167.8H192
		c-4.418,0-8,3.582-8,8v24c-4.418,0-8,3.582-8,8v48c0,4.418,3.582,8,8,8h8v40h-40v-8c0-4.418-3.582-8-8-8H96c-4.418,0-8,3.582-8,8
		H64c-4.418,0-8,3.582-8,8H16v16h40v96H16v16h40c0,4.418,3.582,8,8,8h24c0,4.418,3.582,8,8,8h48c4.418,0,8-3.582,8-8v-8h208v8
		c0,4.418,3.582,8,8,8h48c4.418,0,8-3.582,8-8h24c4.418,0,8-3.582,8-8h40v-16h-40v-96h40v-16h-40c0-4.418-3.582-8-8-8h-24
		c0-4.418-3.582-8-8-8h-48c-4.418,0-8,3.582-8,8v8h-40v-40h8c4.418,0,8-3.582,8-8v-48c0-4.418-3.582-8-8-8v-24
		c-0.02-4.117-3.192-7.532-7.296-7.856c3.377-20.163,19.144-35.981,39.296-39.424V168c0,4.418,3.582,8,8,8h48c4.418,0,8-3.582,8-8
		h24c4.418,0,8-3.582,8-8h40v-16h-40V48h40V32h-40C456,27.582,452.418,24,448,24z M72,456V344h16v112H72z M136,464h-32V336h32V464z
		 M440,344v112h-16V344H440z M376,336h32v128h-32V336z M312,352h48v96H152v-96h48c4.418,0,8-3.582,8-8v-48h96v48
		C304,348.418,307.582,352,312,352z M320,280H192v-32h128V280z M200,232v-16h112v16H200z M304.552,200h-96.144
		C212.578,118.067,278.067,52.578,360,48.408v96.144C331.043,148.244,308.244,171.043,304.552,200z M376,160V32h32v128H376z
		 M440,152h-16V40h16V152z"/>
	<path d="M166.024,158.088l15.544,3.824c13.571-55.157,50.915-101.45,101.952-126.384l-7.04-14.36
		C221.186,48.178,180.726,98.331,166.024,158.088z"/>
	<rect x="176" y="480" width="128" height="16"/>
	<rect x="320" y="480" width="16" height="16"/>
</g>
</svg>
