<?xml version="1.0" encoding="utf-8"?>
<!-- Generator: Adobe Illustrator 21.1.0, SVG Export Plug-In . SVG Version: 6.00 Build 0)  -->
<svg version="1.1" id="Слой_1" xmlns="http://www.w3.org/2000/svg" xmlns:xlink="http://www.w3.org/1999/xlink" x="0px" y="0px"
	 viewBox="0 0 55.853 63.395" style="enable-background:new 0 0 55.853 63.395;" xml:space="preserve">
<g id="Слой_x0020_1">
	<g id="_879616928">
		<g id="_876021408">
			<path d="M13.496,28.921C13.496,37.249,20.247,44,28.575,44s15.079-6.751,15.079-15.079s-6.751-15.079-15.079-15.079
				C20.251,13.851,13.506,20.597,13.496,28.921z M28.575,15.922c7.18,0,13,5.82,13,12.999s-5.82,12.999-13,12.999
				c-7.179,0-12.999-5.819-12.999-12.999C15.584,21.745,21.399,15.93,28.575,15.922z"/>
			<path d="M48.78,46.564l-8.145,3.848c-1.125-2.092-3.282-3.423-5.657-3.49l-7.519-0.206c-1.191-0.034-2.359-0.336-3.418-0.883
				l-0.765-0.397c-3.918-2.042-8.587-2.036-12.501,0.014l0.048-1.734c0.015-0.574-0.437-1.052-1.011-1.068l-8.246-0.227
				c-0.574-0.016-1.053,0.437-1.068,1.011L0,61.527c-0.016,0.574,0.437,1.053,1.011,1.068l8.246,0.227h0.028
				c0.564,0,1.025-0.448,1.04-1.011l0.024-0.866l2.142-1.147c0.841-0.452,1.824-0.56,2.742-0.3l12.793,3.59
				c0.022,0.007,0.044,0.012,0.067,0.017c0.925,0.194,1.867,0.29,2.812,0.29c2,0.001,3.977-0.43,5.795-1.265
				c0.045-0.02,0.088-0.044,0.129-0.071l18.548-11.997c0.462-0.299,0.611-0.906,0.341-1.385
				C54.341,46.234,51.287,45.303,48.78,46.564L48.78,46.564L48.78,46.564z M2.107,60.545l0.441-16.016l6.167,0.169L8.274,60.715
				L2.107,60.545z M35.763,60.273c-2.258,1.019-4.781,1.301-7.21,0.804l-12.757-3.581c-1.436-0.405-2.973-0.237-4.286,0.469
				l-1.095,0.587l0.293-10.649c3.469-2.308,7.918-2.545,11.612-0.62l0.765,0.397c1.338,0.69,2.812,1.071,4.317,1.114l7.52,0.207
				c2.112,0.061,3.906,1.565,4.335,3.635l-11.202-0.31c-0.574-0.015-1.052,0.438-1.068,1.011c-0.015,0.575,0.438,1.053,1.011,1.069
				l12.362,0.34h0.028c0.564-0.001,1.024-0.449,1.039-1.012c0.013-0.452-0.02-0.904-0.1-1.349l8.355-3.948
				c0.008-0.003,0.016-0.007,0.024-0.011c1.185-0.6,2.618-0.399,3.593,0.503L35.763,60.273L35.763,60.273z"/>
			<path d="M29.615,10.918V1.04c0-0.575-0.465-1.04-1.04-1.04c-0.574,0-1.039,0.465-1.039,1.04v9.878c0,0.575,0.465,1.04,1.039,1.04
				C29.15,11.958,29.615,11.493,29.615,10.918z"/>
			<path d="M37.414,10.918V6.239c0-0.574-0.465-1.04-1.04-1.04c-0.574,0-1.04,0.466-1.04,1.04v4.679c0,0.575,0.466,1.04,1.04,1.04
				C36.949,11.958,37.414,11.493,37.414,10.918z"/>
			<path d="M21.816,10.918V6.239c0-0.574-0.465-1.04-1.04-1.04c-0.574,0-1.039,0.466-1.039,1.04v4.679
				c0,0.575,0.465,1.04,1.039,1.04C21.351,11.958,21.816,11.493,21.816,10.918z"/>
			<g>
				<path d="M25.38,37.835h-2.024V21.569h6.536c1.577,0,2.82,0.471,3.731,1.414c0.91,0.943,1.365,2.106,1.365,3.488
					s-0.459,2.544-1.377,3.487c-0.919,0.943-2.159,1.415-3.719,1.415H25.38V37.835L25.38,37.835z M29.648,29.568
					c0.959,0,1.739-0.289,2.341-0.866c0.601-0.577,0.902-1.321,0.902-2.231c0-0.911-0.301-1.654-0.902-2.232
					c-0.602-0.577-1.382-0.865-2.341-0.865H25.38v6.194H29.648L29.648,29.568z"/>
				<rect x="22.163" y="33.183" width="8.532" height="2.006"/>
			</g>
		</g>
	</g>
</g>
</svg>
