<?xml version="1.0" encoding="utf-8"?>
<!-- Generator: Adobe Illustrator 21.1.0, SVG Export Plug-In . SVG Version: 6.00 Build 0)  -->
<svg version="1.1" id="Слой_1" xmlns="http://www.w3.org/2000/svg" xmlns:xlink="http://www.w3.org/1999/xlink" x="0px" y="0px"
	 viewBox="0 0 43 26" style="enable-background:new 0 0 43 26;" xml:space="preserve">
<g id="Слой_x0020_1">
	<g id="_992363968">
		<path d="M1.036,7.596h6.249c0.46,0,0.833,0.374,0.833,0.833v6.881h26.763V8.43c0-0.46,0.374-0.833,0.833-0.833h6.249
			c0.288,0,0.544,0.116,0.732,0.304C42.884,8.088,43,8.343,43,8.632v13.65c0,0.281-0.116,0.544-0.304,0.732
			c-0.188,0.188-0.443,0.304-0.732,0.304H1.036c-0.281,0-0.544-0.116-0.732-0.304C0.116,22.826,0,22.563,0,22.282V8.632
			C0,8.343,0.116,8.088,0.304,7.9C0.492,7.712,0.754,7.596,1.036,7.596z M6.451,9.263H1.667V21.65h39.666V9.263h-4.784v6.678
			c0,0.281-0.116,0.544-0.304,0.732c-0.188,0.188-0.45,0.304-0.732,0.304H7.487c-0.281,0-0.544-0.116-0.732-0.304
			c-0.188-0.188-0.304-0.45-0.304-0.732V9.263z"/>
		<path d="M3.159,8.43V1.195c0-0.288,0.116-0.544,0.304-0.732S3.913,0.16,4.195,0.16H38.79c0.28,0,0.544,0.117,0.729,0.305
			c0.192,0.189,0.306,0.45,0.306,0.731V8.43h-1.667V1.827H4.826V8.43H3.159z"/>
		<path d="M3.291,22.484c0-0.46,0.374-0.833,0.833-0.833c0.46,0,0.833,0.374,0.833,0.833v2.523c0,0.46-0.374,0.833-0.833,0.833
			c-0.46,0-0.833-0.374-0.833-0.833V22.484z"/>
		<path d="M38.043,22.484c0-0.46,0.374-0.833,0.833-0.833c0.46,0,0.833,0.374,0.833,0.833v2.523c0,0.46-0.374,0.833-0.833,0.833
			c-0.46,0-0.833-0.374-0.833-0.833V22.484z"/>
	</g>
</g>
</svg>
