<?xml version="1.0" encoding="utf-8"?>
<!-- Generator: Adobe Illustrator 21.1.0, SVG Export Plug-In . SVG Version: 6.00 Build 0)  -->
<svg version="1.1" id="Layer_1" xmlns="http://www.w3.org/2000/svg" xmlns:xlink="http://www.w3.org/1999/xlink" x="0px" y="0px"
	 viewBox="0 0 422 406.92" style="enable-background:new 0 0 422 406.92;" xml:space="preserve">
<path d="M422,170.468c0.002-3.866-3.13-7.002-6.996-7.004c-0.001,0-0.003,0-0.004,0H218V65.5l41.932-28.976
	c9.103-6.296,11.378-18.779,5.082-27.882S246.235-2.736,237.132,3.56l0,0L21.024,152.904c-9.103,6.291-11.384,18.77-5.093,27.874
	c3.02,4.37,7.652,7.362,12.877,8.318c1.202,0.22,2.422,0.332,3.644,0.332c4.058-0.003,8.017-1.247,11.348-3.564L76.6,163.2v153.72H7
	c-3.866,0-7,3.134-7,7l0,0v76c0,3.866,3.134,7,7,7h408c3.866,0,7-3.134,7-7V170.468z M177.932,93.188V240.92h-61.264v-105.4
	L177.932,93.188z M116.668,254.92H408v62H116.668V254.92z M408,177.464v63.456H218v-63.456H408z M204,240.912h-12.068V83.516
	L204,75.176V240.912z M35.844,174.352c-2.652,2.02-6.439,1.508-8.459-1.144s-1.508-6.439,1.144-8.459
	c0.152-0.116,0.309-0.224,0.471-0.325l216.112-149.36c2.742-1.894,6.5-1.208,8.394,1.534c1.894,2.742,1.208,6.5-1.534,8.394
	l-146.22,101.052L35.844,174.352z M90.596,153.552l12.068-8.34V316.92H90.6L90.596,153.552z M408,392.936H14v-62h394V392.936z"/>
</svg>
