<?xml version="1.0" encoding="utf-8"?>
<!-- Generator: Adobe Illustrator 21.1.0, SVG Export Plug-In . SVG Version: 6.00 Build 0)  -->
<svg version="1.1" id="icons" xmlns="http://www.w3.org/2000/svg" xmlns:xlink="http://www.w3.org/1999/xlink" x="0px" y="0px"
	 viewBox="0 0 512 512" style="enable-background:new 0 0 512 512;" xml:space="preserve">
<path d="M487.816,336.016h-151.88v-152c0-4.424-3.576-8-8-8H176.064v-152c0-4.424-3.576-8-8-8h-160c-4.424,0-8,3.576-8,8v160v160
	v160c0,4.424,3.576,8,8,8h159.872h0.128h159.752h0.128h159.872c4.424,0,8-3.576,8-8v-160
	C495.816,339.592,492.232,336.016,487.816,336.016L487.816,336.016z M16.064,192.016h143.872v144H16.064V192.016z M176.064,352.016
	h143.752v144H176.064L176.064,352.016z M319.936,336.016H176.064v-144h143.872V336.016z M16.064,32.016h144v144h-144V32.016z
	 M16.064,352.016h143.872v144H16.064V352.016z M479.816,496.016h-143.88v-144h143.872v144H479.816z"/>
<path d="M144.064,40.016c-4.424,0-8,3.576-8,8v104h-104c-4.424,0-8,3.576-8,8s3.576,8,8,8h112c4.424,0,8-3.576,8-8v-112
	C152.064,43.592,148.488,40.016,144.064,40.016z"/>
<path d="M144.064,200.016c-4.424,0-8,3.576-8,8v104h-104c-4.424,0-8,3.576-8,8s3.576,8,8,8h112c4.424,0,8-3.576,8-8v-112
	C152.064,203.592,148.488,200.016,144.064,200.016L144.064,200.016z"/>
<path d="M144.064,360.016c-4.424,0-8,3.576-8,8v104h-104c-4.424,0-8,3.576-8,8s3.576,8,8,8h112c4.424,0,8-3.576,8-8v-112
	C152.064,363.592,148.488,360.016,144.064,360.016z"/>
<path d="M192.064,328.016h112c4.424,0,8-3.576,8-8v-112c0-4.424-3.576-8-8-8s-8,3.576-8,8v104h-104c-4.424,0-8,3.576-8,8
	S187.64,328.016,192.064,328.016z"/>
<path d="M304.064,360.016c-4.424,0-8,3.576-8,8v104h-104c-4.424,0-8,3.576-8,8s3.576,8,8,8h112c4.424,0,8-3.576,8-8v-112
	C312.064,363.592,308.488,360.016,304.064,360.016z"/>
<path d="M352.064,488.016h112c4.424,0,8-3.576,8-8v-112c0-4.424-3.576-8-8-8s-8,3.576-8,8v104h-104c-4.424,0-8,3.576-8,8
	S347.64,488.016,352.064,488.016z"/>
<path d="M191.904,39.856h127.992c4.424,0,8-3.576,8-8s-3.576-8-8-8H191.904c-4.424,0-8,3.576-8,8S187.488,39.856,191.904,39.856
	L191.904,39.856z"/>
<path d="M191.904,71.872h127.992c4.424,0,8-3.576,8-8s-3.576-8-8-8H191.904c-4.424,0-8,3.576-8,8S187.488,71.872,191.904,71.872
	L191.904,71.872z"/>
<path d="M191.904,103.888h127.992c4.424,0,8-3.576,8-8s-3.576-8-8-8H191.904c-4.424,0-8,3.576-8,8S187.488,103.888,191.904,103.888
	L191.904,103.888z"/>
<path d="M191.904,135.904h127.992c4.424,0,8-3.576,8-8s-3.576-8-8-8H191.904c-4.424,0-8,3.576-8,8
	C183.904,132.328,187.488,135.904,191.904,135.904L191.904,135.904z"/>
<path d="M191.904,167.904h127.992c4.424,0,8-3.576,8-8s-3.576-8-8-8H191.904c-4.424,0-8,3.576-8,8S187.488,167.904,191.904,167.904
	L191.904,167.904z"/>
<path d="M441.872,2.768c-5.928,6.896-57.936,68.312-57.936,101.264c0,28.304,18.488,52.336,44.008,60.76V192h-8
	c-4.424,0-8,3.576-8,8s3.576,8,8,8h0.008v67.976c0,0.016-0.008,0.024-0.008,0.04c0,15.44,12.56,28,28,28s28-12.56,28-28
	c0-0.016-0.008-0.024-0.008-0.04V208c4.424,0,8-3.576,8-8s-3.576-8-8-8h-8v-27.208c25.512-8.432,44-32.464,44-60.76
	c0-32.952-52.008-94.368-57.936-101.264C450.968-0.768,444.904-0.768,441.872,2.768L441.872,2.768z M459.944,276.04
	c-0.016,6.608-5.392,11.976-12,11.976s-11.984-5.368-12-11.976c0-0.008,0.008-0.016,0.008-0.024V208h23.984v68.016
	C459.936,276.024,459.944,276.032,459.944,276.04z M451.936,192h-7.992v-24.168c1.328,0.088,2.648,0.2,3.992,0.2
	c1.352,0,2.672-0.12,4-0.2V192z M447.936,152.032c-26.472,0-48-21.528-48-48c0-20.28,30.544-62.072,48-83.552
	c17.464,21.48,48,63.256,48,83.552C495.936,130.504,474.408,152.032,447.936,152.032z"/>
</svg>
