<?xml version="1.0" encoding="utf-8"?>
<!-- Generator: Adobe Illustrator 21.1.0, SVG Export Plug-In . SVG Version: 6.00 Build 0)  -->
<svg version="1.1" id="Слой_1" xmlns="http://www.w3.org/2000/svg" xmlns:xlink="http://www.w3.org/1999/xlink" x="0px" y="0px"
	 viewBox="0 0 512 512" style="enable-background:new 0 0 512 512;" xml:space="preserve">
<path d="M116,412c-16.543,0-30,13.457-30,30s13.457,30,30,30s30-13.457,30-30S132.543,412,116,412z M116,452
	c-5.516,0-10-4.484-10-10s4.484-10,10-10s10,4.484,10,10S121.516,452,116,452z"/>
<path d="M482,412h-16V196c0-5.523-4.477-10-10-10h-50V50c0-5.523-4.477-10-10-10c-42.133,0-160.895,0-200,0c-5.523,0-10,4.477-10,10
	v362h-6.746c-6.918-14.637-18.613-26.332-33.254-33.254V30c0-16.543-13.457-30-30-30H30C13.457,0,0,13.457,0,30s13.457,30,30,30h56
	v318.746C61.813,390.23,46,414.809,46,442c0,38.598,31.402,70,70,70c27.191,0,51.77-15.813,63.254-40H482c16.543,0,30-13.457,30-30
	S498.543,412,482,412z M446,412H206V206h70v106c0,3.789,2.141,7.25,5.527,8.945S288.969,322.273,292,320l34-25.5l34,25.5
	c3.035,2.277,7.09,2.637,10.473,0.945C373.859,319.25,376,315.789,376,312V206h70V412z M296,206h60v86l-24-18
	c-1.777-1.332-3.891-2-6-2s-4.223,0.668-6,2l-24,18V206z M276,60h40v57.313l-14.453-9.633c-1.68-1.121-3.613-1.68-5.547-1.68
	s-3.867,0.559-5.547,1.68L276,117.313V60z M256,60v76c0,3.688,2.031,7.074,5.281,8.816c3.254,1.742,7.199,1.547,10.266-0.496
	L296,128.02l24.453,16.301c3.07,2.047,7.02,2.234,10.266,0.496c3.25-1.738,5.281-5.129,5.281-8.816V60h50v126
	c-55.207,0-125.488,0-180,0V60H256z M30,40c-5.516,0-10-4.484-10-10s4.484-10,10-10h86c5.516,0,10,4.484,10,10v342.723
	c-3.297-0.473-6.633-0.723-10-0.723s-6.703,0.25-10,0.723V50c0-5.523-4.477-10-10-10H30z M116,492c-27.57,0-50-22.43-50-50
	c0-27.273,22.063-50,50-50c27.93,0,50,22.75,50,50C166,469.938,143.273,492,116,492z M482,452H185.277
	c0.473-3.297,0.723-6.633,0.723-10s-0.254-6.703-0.723-10H482c5.516,0,10,4.484,10,10S487.516,452,482,452z"/>
<path d="M416,392c5.523,0,10-4.477,10-10v-20c0-5.523-4.477-10-10-10s-10,4.477-10,10v20C406,387.523,410.477,392,416,392z"/>
<path d="M416,312c5.52,0,10,4.48,10,10s-4.48,10-10,10s-10-4.48-10-10S410.48,312,416,312z"/>
<path d="M376,352c-5.523,0-10,4.477-10,10v20c0,5.523,4.477,10,10,10s10-4.477,10-10v-20C386,356.477,381.523,352,376,352z"/>
</svg>
