<?xml version="1.0" encoding="utf-8"?>
<!-- Generator: Adobe Illustrator 21.1.0, SVG Export Plug-In . SVG Version: 6.00 Build 0)  -->
<svg version="1.1" id="Слой_1" xmlns="http://www.w3.org/2000/svg" xmlns:xlink="http://www.w3.org/1999/xlink" x="0px" y="0px"
	 viewBox="0 0 28 16" style="enable-background:new 0 0 28 16;" xml:space="preserve">
<g id="Слой_x0020_1">
	<g id="_998550704">
		<path d="M6.613,14.153H0.748c-0.176,0-0.337-0.073-0.452-0.188c-0.115-0.115-0.188-0.28-0.188-0.451V2.928
			c0-0.805,0.33-1.539,0.86-2.069C1.498,0.33,2.232,0,3.037,0h21.927c0.804,0,1.537,0.33,2.068,0.859
			c0.53,0.532,0.86,1.265,0.86,2.069v10.586c0,0.17-0.075,0.336-0.189,0.45c-0.114,0.114-0.275,0.189-0.45,0.189h-2.422v-0.882h2.18
			V2.928c0-0.563-0.232-1.075-0.6-1.446c-0.372-0.369-0.884-0.6-1.447-0.6H3.037c-0.562,0-1.075,0.232-1.445,0.6
			C1.22,1.853,0.99,2.366,0.99,2.928v10.344h5.623V14.153z M20.902,14.153h-10.36v-0.882h10.36V14.153z"/>
		<path d="M8.578,11.182c0.664,0,1.268,0.27,1.703,0.705c0.435,0.435,0.705,1.039,0.705,1.703c0,0.664-0.27,1.268-0.705,1.703
			C9.846,15.728,9.242,16,8.578,16c-0.664,0-1.268-0.272-1.703-0.707c-0.435-0.435-0.707-1.039-0.707-1.703
			c0-0.664,0.272-1.268,0.707-1.703C7.31,11.453,7.914,11.182,8.578,11.182z M9.658,12.51c-0.275-0.275-0.659-0.447-1.08-0.447
			c-0.42,0-0.805,0.171-1.08,0.447C7.223,12.785,7.05,13.17,7.05,13.59c0,0.421,0.173,0.806,0.448,1.08
			c0.275,0.275,0.659,0.448,1.08,0.448c0.421,0,0.805-0.173,1.08-0.448c0.275-0.275,0.447-0.659,0.447-1.08
			C10.105,13.17,9.933,12.785,9.658,12.51z"/>
		<path d="M22.867,11.182c0.664,0,1.268,0.27,1.703,0.705c0.435,0.435,0.705,1.039,0.705,1.703c0,0.664-0.27,1.268-0.705,1.703
			C24.135,15.728,23.531,16,22.867,16c-0.664,0-1.268-0.272-1.703-0.707c-0.434-0.435-0.706-1.039-0.706-1.703
			c0-0.664,0.272-1.268,0.706-1.703C21.598,11.453,22.203,11.182,22.867,11.182z M23.947,12.51c-0.275-0.275-0.659-0.447-1.08-0.447
			c-0.42,0-0.805,0.171-1.08,0.447c-0.275,0.275-0.448,0.659-0.448,1.08c0,0.421,0.173,0.806,0.448,1.08
			c0.275,0.275,0.659,0.448,1.08,0.448c0.421,0,0.805-0.173,1.08-0.448c0.275-0.275,0.447-0.659,0.447-1.08
			C24.394,13.17,24.222,12.785,23.947,12.51z"/>
		<path d="M15.08,13.591V3.109c0-0.175,0.071-0.332,0.184-0.447C15.388,2.54,15.55,2.47,15.72,2.47h4.148
			c0.175,0,0.333,0.071,0.447,0.184c0.121,0.122,0.193,0.28,0.193,0.455v10.483h-0.882V3.351h-3.664v10.241H15.08z"/>
		<path d="M18.994,8.776c-0.243,0-0.441-0.197-0.441-0.441c0-0.243,0.197-0.441,0.441-0.441h1.072c0.243,0,0.441,0.198,0.441,0.441
			c0,0.243-0.197,0.441-0.441,0.441H18.994z"/>
		<path d="M10.745,2.47h2.888c0.175,0,0.332,0.071,0.447,0.184c0.121,0.122,0.192,0.28,0.192,0.455v2.888
			c0,0.169-0.071,0.331-0.184,0.447c-0.122,0.121-0.28,0.193-0.455,0.193h-2.888c-0.17,0-0.331-0.071-0.447-0.185
			c-0.122-0.123-0.193-0.286-0.193-0.455V3.109c0-0.175,0.071-0.332,0.184-0.447C10.413,2.54,10.575,2.47,10.745,2.47z M13.39,3.351
			h-2.403v2.404h2.403V3.351z"/>
		<path d="M0.549,2.47h2.3c0.173,0,0.339,0.073,0.452,0.188c0.115,0.115,0.188,0.276,0.188,0.451v2.888
			c0,0.175-0.073,0.336-0.188,0.452C3.186,6.563,3.025,6.636,2.849,6.636h-2.3V5.755h2.058V3.351H0.549V2.47z"/>
		<path d="M5.353,2.47h2.888c0.176,0,0.333,0.071,0.447,0.184C8.809,2.776,8.88,2.934,8.88,3.109v2.888
			c0,0.169-0.071,0.331-0.184,0.447c-0.122,0.121-0.28,0.193-0.455,0.193H5.353c-0.169,0-0.331-0.071-0.447-0.185
			C4.784,6.328,4.714,6.166,4.714,5.997V3.109c0-0.175,0.071-0.332,0.184-0.447C5.022,2.54,5.184,2.47,5.353,2.47z M7.999,3.351
			H5.595v2.404h2.403V3.351z"/>
		<path d="M27.451,8.441h-5.184c-0.176,0-0.336-0.074-0.449-0.187c-0.113-0.113-0.187-0.272-0.187-0.449v-4.7
			c0-0.175,0.074-0.337,0.187-0.45c0.115-0.115,0.274-0.185,0.449-0.185h5.184v0.881h-4.937V7.56h4.937V8.441z"/>
	</g>
</g>
</svg>
