<?xml version="1.0" encoding="utf-8"?>
<!-- Generator: Adobe Illustrator 21.1.0, SVG Export Plug-In . SVG Version: 6.00 Build 0)  -->
<svg version="1.1" id="Слой_1" xmlns="http://www.w3.org/2000/svg" xmlns:xlink="http://www.w3.org/1999/xlink" x="0px" y="0px"
	 viewBox="0 0 49 42" style="enable-background:new 0 0 49 42;" xml:space="preserve">
<g id="Слой_x0020_1">
	<g id="_647013296">
		<path d="M1.012,25.995h3.332c0.277,0,0.534,0.116,0.715,0.296c0.184,0.184,0.298,0.438,0.298,0.716v13.98
			c0,0.266-0.107,0.517-0.287,0.701l-0.024,0.024c-0.184,0.179-0.436,0.287-0.702,0.287H1.012c-0.278,0-0.531-0.113-0.716-0.298
			C0.116,41.521,0,41.265,0,40.987v-13.98c0-0.275,0.112-0.522,0.286-0.703l0.064-0.06C0.53,26.09,0.758,25.995,1.012,25.995z
			 M3.691,27.66H1.665v12.674h2.025V27.66z"/>
		<path d="M7.928,31.32H24.77v5.355H7.096V31.32H7.928z M23.105,32.985H8.761v2.024h14.344V32.985z"/>
		<path d="M4.31,28.399c1.221,0,2.336,0.501,3.143,1.309c0.807,0.804,1.309,1.918,1.309,3.143v2.294
			c0,1.225-0.502,2.338-1.307,3.144c-0.806,0.805-1.919,1.307-3.144,1.307v-1.665c0.765,0,1.463-0.314,1.968-0.819
			c0.504-0.504,0.819-1.202,0.819-1.968v-2.294c0-0.765-0.314-1.463-0.819-1.968c-0.502-0.506-1.2-0.819-1.968-0.819V28.399z"/>
		<path d="M23.105,26.994c0-0.459,0.373-0.833,0.833-0.833c0.459,0,0.833,0.373,0.833,0.833v10.483c0,0.735-0.302,1.407-0.787,1.891
			c-0.484,0.484-1.156,0.787-1.891,0.787c-0.737,0-1.408-0.302-1.892-0.787c-0.484-0.484-0.787-1.154-0.787-1.891v-1.634
			c0-0.459,0.373-0.833,0.833-0.833c0.459,0,0.833,0.373,0.833,0.833v1.634c0,0.278,0.116,0.533,0.298,0.715
			c0.182,0.182,0.437,0.298,0.716,0.298c0.278,0,0.533-0.116,0.715-0.298c0.182-0.182,0.298-0.437,0.298-0.715V26.994z
			 M21.08,32.163c0,0.459-0.373,0.833-0.833,0.833c-0.459,0-0.833-0.373-0.833-0.833v-6.276c0-0.459,0.373-0.833,0.833-0.833
			c0.459,0,0.833,0.373,0.833,0.833V32.163z"/>
		<path d="M37.862,18.893c0.159-0.431,0.638-0.652,1.069-0.493c0.431,0.159,0.652,0.639,0.492,1.07l-2.429,6.576
			c-0.094,0.255-0.288,0.449-0.511,0.556l-0.078,0.033c-0.22,0.08-0.462,0.091-0.691,0.013l-24.005-8.872
			c-0.259-0.091-0.451-0.285-0.559-0.506c-0.115-0.236-0.134-0.509-0.047-0.764l1.18-3.195c0.158-0.429,0.637-0.648,1.065-0.49
			c0.429,0.158,0.648,0.637,0.49,1.065l-0.945,2.559l22.764,8.413L37.862,18.893z"/>
		<path d="M48.483,15.042l-9.188,4.751c-0.229,0.174-0.484,0.333-0.935,0.17l-7.935-2.933l-2.554,2.433
			c-0.236,0.224-0.572,0.283-0.858,0.178c-5.02-1.854-14.946-4.867-19.19-7.1c-0.2-0.106-0.356-0.278-0.447-0.476
			c-0.105-0.231-0.127-0.504-0.031-0.765l3.928-10.637l0.071-0.149c0.105-0.185,0.265-0.327,0.442-0.412
			c0.231-0.113,0.515-0.136,0.778-0.041L48.32,13.272c0.085,0.031,0.163,0.073,0.23,0.127c0.15,0.109,0.273,0.259,0.344,0.4
			l0.091,0.28c0.026,0.144,0.021,0.313-0.048,0.487l-0.099,0.179C48.757,14.864,48.642,14.97,48.483,15.042z M38.603,18.281
			l7.699-3.983L12.608,1.848L9.13,11.262l17.971,6.641l2.411-2.297c0.215-0.206,0.45-0.294,0.711-0.307l0.043-0.001
			c0.162-0.002,0.316,0.027,0.47,0.079L38.603,18.281z"/>
		<path d="M42.673,16.997c0.472,0.691,0.783,1.505,0.891,2.356c0.103,0.814,0.022,1.665-0.277,2.476l-0.009,0.027
			c-0.51,1.352-1.516,2.376-2.733,2.936c-1.226,0.566-2.667,0.663-4.029,0.161l-0.085-0.039l0.379-0.764l0.278-0.758
			c0.934,0.345,1.923,0.279,2.761-0.107c0.839-0.384,1.532-1.092,1.875-2.024c0.207-0.563,0.262-1.144,0.193-1.698
			c-0.073-0.586-0.289-1.148-0.617-1.626L42.673,16.997z"/>
		<rect x="16.863" y="10.62" transform="matrix(0.3466 -0.938 0.938 0.3466 0.8196 24.082)" width="1.665" height="1.665"/>
		<rect x="20.191" y="11.85" transform="matrix(0.3466 -0.938 0.938 0.3466 1.8405 28.0072)" width="1.665" height="1.665"/>
		<rect x="23.601" y="13.11" transform="matrix(0.3466 -0.938 0.938 0.3466 2.8867 32.029)" width="1.665" height="1.665"/>
		<path d="M26.264,22.273c0.158-0.429,0.637-0.649,1.065-0.49s0.649,0.637,0.49,1.065l-0.994,2.689
			c-0.307,0.839-0.932,1.475-1.687,1.822c-0.752,0.346-1.642,0.405-2.479,0.097l-2.2-0.809c-0.839-0.311-1.473-0.935-1.82-1.689
			c-0.347-0.752-0.406-1.642-0.098-2.48l0.992-2.694c0.159-0.431,0.639-0.652,1.07-0.493c0.431,0.159,0.651,0.639,0.492,1.07
			l-0.994,2.69c-0.154,0.403-0.122,0.841,0.048,1.21c0.169,0.366,0.478,0.672,0.883,0.821l2.199,0.813
			c0.404,0.154,0.839,0.123,1.21-0.048c0.366-0.168,0.672-0.478,0.822-0.885L26.264,22.273z"/>
	</g>
</g>
</svg>
