<?xml version="1.0" encoding="utf-8"?>
<!-- Generator: Adobe Illustrator 21.1.0, SVG Export Plug-In . SVG Version: 6.00 Build 0)  -->
<svg version="1.1" id="Layer_5" xmlns="http://www.w3.org/2000/svg" xmlns:xlink="http://www.w3.org/1999/xlink" x="0px" y="0px"
	 viewBox="0 0 512 512" style="enable-background:new 0 0 512 512;" xml:space="preserve">
<path d="M480,120h-56V72h16V8H8v64h16v432h107.92c0.024,0,0.048,0.008,0.08,0.008s0.048-0.008,0.08-0.008h39.848
	c0.024,0,0.048,0.008,0.08,0.008s0.04-0.008,0.072-0.008h71.848c0.024,0,0.048,0.008,0.08,0.008s0.04-0.008,0.072-0.008h39.848
	c0.024,0,0.048,0.008,0.08,0.008s0.04-0.008,0.072-0.008H424V360h56c13.232,0,24-10.768,24-24V144C504,130.768,493.232,120,480,120z
	 M408,120h-8c-13.232,0-24,10.768-24,24v88.008h-76.328C307.312,223.504,312,212.304,312,200c0-14.168-6.208-26.88-16-35.68V72h112
	V120z M449.872,280L440,296.456L430.128,280H449.872z M416.04,264h-14.168l0.008,0.008H320c-13.232,0-24,10.768-24,24v188
	c0,6.592-5.344,11.952-11.92,11.992h-0.16c-6.576-0.04-11.92-5.4-11.92-11.992V360h-16v116.008c0,6.592-5.344,11.952-11.92,11.992
	h-0.16c-6.576-0.04-11.92-5.4-11.92-11.992v-188h-16v80c-8.824,0-16-7.176-16-16v-16v-48c0-22.056,17.944-40,40-40h176
	c4.408,0,8,3.584,8,8C424,260.408,420.432,263.976,416.04,264L416.04,264z M171.92,488c-6.576-0.04-11.92-5.4-11.92-11.992v-116h-16
	v116c0,6.592-5.344,11.952-11.92,11.992h-0.16c-6.576-0.04-11.92-5.4-11.92-11.992V456.52V264h32v0.008h24
	c4.264,0,8.464,0.76,12.48,2.072c-2.88,6.744-4.48,14.152-4.48,21.928v48v16v124c0,6.592-5.344,11.952-11.92,11.992H171.92z M280,72
	v82.8c-5.016-1.776-10.384-2.8-16-2.8c-26.472,0-48,21.528-48,48c0,12.816,5.08,24.448,13.288,33.064
	c-12.84,2.496-24.128,9.392-32.216,19.056c-3.36-1.36-6.872-2.28-10.432-2.976C194.896,240.52,200,228.856,200,216
	c0-26.472-21.528-48-48-48c-12.304,0-23.496,4.688-32,12.32V72L280,72z M296,200c0,17.648-14.352,32-32,32s-32-14.352-32-32
	s14.352-32,32-32S296,182.352,296,200z M120,216c0-17.648,14.352-32,32-32s32,14.352,32,32s-14.352,32-32,32S120,233.648,120,216z
	 M200,476.008V379.56c4.728,2.752,10.144,4.448,16,4.448v92c0,4.304,1.056,8.344,2.808,11.992H197.2
	C198.944,484.352,200,480.312,200,476.008z M24,24h400v32H24V24z M40,72h64v384.52v19.488V488H40V72z M408,488h-98.808
	c1.752-3.648,2.808-7.688,2.808-11.992v-188c0-4.416,3.592-8,8-8h56V336c0,13.232,10.768,24,24,24h8L408,488z M488,336
	c0,4.416-3.592,8-8,8h-80c-4.408,0-8-3.584-8-8v-55.992h19.48L440,327.544L478.128,264h-39.6c0.896-2.512,1.472-5.176,1.472-7.992
	c0-13.232-10.768-24-24-24h-24V144c0-4.416,3.592-8,8-8h80c4.408,0,8,3.584,8,8L488,336z"/>
<path d="M401.872,216h76.256L440,152.456L401.872,216z M430.128,200L440,183.544L449.872,200H430.128z"/>
<path d="M56,88h16v16H56V88z"/>
<path d="M56,120h16v16H56V120z"/>
<path d="M56,152h16v16H56V152z"/>
<path d="M376,88h16v16h-16V88z"/>
<path d="M344,88h16v16h-16V88z"/>
<path d="M312,88h16v16h-16V88z"/>
<path d="M376,456h16v16h-16V456z"/>
<path d="M376,376h16v64h-16V376z"/>
</svg>
