<?xml version="1.0" encoding="utf-8"?>
<!-- Generator: Adobe Illustrator 21.1.0, SVG Export Plug-In . SVG Version: 6.00 Build 0)  -->
<svg version="1.1" id="Слой_1" xmlns="http://www.w3.org/2000/svg" xmlns:xlink="http://www.w3.org/1999/xlink" x="0px" y="0px"
	 viewBox="0 0 512 512" style="enable-background:new 0 0 512 512;" xml:space="preserve">
<path d="M512,117.664C512,79.25,480.75,48,442.336,48c-38.41,0-69.66,31.25-69.66,69.664v39.254H20.332
	C9.121,156.918,0,166.039,0,177.25l1.336,273.922c2.535,7.863,10.965,13.164,18.996,13.164h422.004
	c38.414,0,69.664-31.25,69.664-69.66V117.664z M372.676,307.531l-76.816,41.109c-11.289,6.039-2.113,24.199,9.598,17.926
	l67.219-35.973v41.941l-133.371,71.469h-78.223l73.316-39.285c11.508-6.168,1.918-24.098-9.605-17.926l-106.762,57.211L40.117,444
	l332.559-178.203V307.531z M178.82,177.25h76.809l83.469,83.469l-50.008,26.797L178.82,177.25z M110.906,255.105l-90.574,47.859
	v-40.73l63.922-33.781L110.906,255.105z M20.332,325.965l105.621-55.813l26.363,26.359L20.332,366.254V325.965z M167.363,311.559
	l26.816,26.816L20.332,431.531v-42.277L167.363,311.559z M372.676,242.727l-14.855,7.961l-73.438-73.438h88.293V242.727z
	 M270.363,297.551l-57.461,30.793L61.813,177.25h88.25L270.363,297.551z M20.332,177.25h12.723l36.156,36.156l-48.879,25.828V177.25
	z M282.355,444.004l90.344-48.41c0.246,18.887,8.035,35.988,20.5,48.41H282.355z M442.336,444.004
	c-27.199,0-49.328-22.129-49.328-49.328s22.129-49.328,49.328-49.328c27.203,0,49.332,22.129,49.332,49.328
	S469.539,444.004,442.336,444.004z M442.336,325.012c-19.254,0-36.703,7.855-49.328,20.527v-40.031
	c0-26.824,22.504-49.328,49.328-49.328s49.332,22.504,49.332,49.328v40.031C479.043,332.867,461.594,325.012,442.336,325.012z
	 M490.477,255.227c-27.02-25.879-71.051-25.375-97.465,1.141v-7.473c0-0.027,0-0.051,0-0.078v-37.031
	c0-26.824,22.504-49.328,49.328-49.328s49.328,22.504,49.328,49.328v44.582C491.27,255.988,490.871,255.605,490.477,255.227z
	 M490.492,161.52c-27.02-25.891-71.055-25.398-97.484,1.121v-44.977c0-27.199,22.129-49.328,49.328-49.328
	c27.203,0,49.332,22.129,49.332,49.328v44.977C491.277,162.27,490.883,161.895,490.492,161.52
	C490.063,161.105,490.867,161.879,490.492,161.52z"/>
<path d="M442.336,361.492c-18.297,0-33.184,14.887-33.184,33.184s14.887,33.184,33.184,33.184c18.301,0,33.188-14.887,33.188-33.184
	S460.637,361.492,442.336,361.492z M442.336,407.527c-7.082,0-12.848-5.766-12.848-12.852s5.766-12.848,12.848-12.848
	c7.086,0,12.852,5.762,12.852,12.848S449.422,407.527,442.336,407.527z"/>
<path d="M264.906,365.758c-5.527,0-10.168,4.645-10.168,10.168c0,5.527,4.645,10.164,10.168,10.168c5.367,0,9.91-4.371,10.145-9.723
	C275.301,370.684,270.609,365.758,264.906,365.758z"/>
</svg>
