<?xml version="1.0" encoding="utf-8"?>
<!-- Generator: Adobe Illustrator 21.1.0, SVG Export Plug-In . SVG Version: 6.00 Build 0)  -->
<svg version="1.1" id="Слой_1" xmlns="http://www.w3.org/2000/svg" xmlns:xlink="http://www.w3.org/1999/xlink" x="0px" y="0px"
	 viewBox="0 0 100.7 100.7" style="enable-background:new 0 0 100.7 100.7;" xml:space="preserve">
<g id="Слой_x0020_1">
	<g id="_880498176">
		<g>
			<path d="M36.2,69.9c-2.5,0-4.7-0.6-6.6-1.7c-1.9-1.2-3.4-2.7-4.6-4.6c-1.1-1.9-2-4-2.5-6.3c-0.5-2.2-0.8-4.6-0.8-7
				c0-2.4,0.3-4.8,0.8-7c0.5-2.2,1.4-4.3,2.5-6.2c1.1-1.9,2.6-3.5,4.6-4.6c1.9-1.2,4.1-1.7,6.6-1.7c2.5,0,4.7,0.6,6.6,1.7
				c1.9,1.2,3.5,2.7,4.6,4.6s2,4,2.5,6.2c0.5,2.2,0.8,4.6,0.8,7c0,2.4-0.3,4.8-0.8,7c-0.5,2.2-1.4,4.3-2.5,6.3s-2.6,3.5-4.6,4.6
				C40.8,69.3,38.6,69.9,36.2,69.9z M30.5,63.4c1.5,1.6,3.4,2.4,5.7,2.4s4.2-0.8,5.7-2.4c1.5-1.6,2.6-3.5,3.1-5.7
				c0.6-2.2,0.9-4.7,0.9-7.4s-0.3-5.2-0.9-7.4c-0.6-2.2-1.6-4.1-3.1-5.6s-3.4-2.3-5.7-2.3s-4.2,0.8-5.7,2.3
				c-1.5,1.6-2.6,3.4-3.1,5.6s-0.9,4.7-0.9,7.4s0.3,5.2,0.9,7.4C27.9,59.9,29,61.8,30.5,63.4z"/>
		</g>
		<g id="_x31_">
			<path d="M64.6,51.3c-1.1,1.4-2.4,2.1-4.2,2.1c-1.7,0-3.1-0.7-4.2-2.1s-1.6-3.2-1.6-5.4c0-2.2,0.5-4,1.6-5.4s2.4-2.1,4.2-2.1
				c1.7,0,3.1,0.7,4.2,2.1c1.1,1.4,1.6,3.2,1.6,5.4C66.2,48.1,65.7,49.8,64.6,51.3z M61.6,69.2h-2.1l12.6-30.5h2.1L61.6,69.2z
				 M77.4,67.7c-1.1,1.4-2.4,2.1-4.2,2.1s-3.1-0.7-4.2-2.1s-1.6-3.2-1.6-5.4c0-2.2,0.5-4,1.6-5.4c1.1-1.4,2.4-2.1,4.2-2.1
				s3.1,0.7,4.2,2.1s1.6,3.2,1.6,5.4C79,64.5,78.5,66.3,77.4,67.7z M58.4,49.3c0.5,0.9,1.2,1.3,2,1.3c0.9,0,1.5-0.4,2-1.3
				c0.5-0.9,0.7-2,0.7-3.4c0-1.4-0.2-2.6-0.7-3.5c-0.5-0.9-1.2-1.3-2-1.3c-0.9,0-1.5,0.4-2,1.3c-0.5,0.9-0.7,2-0.7,3.5
				C57.7,47.3,57.9,48.4,58.4,49.3z M71.2,65.7c0.5,0.9,1.2,1.3,2,1.3c0.9,0,1.5-0.4,2-1.3c0.5-0.9,0.7-2,0.7-3.4
				c0-1.4-0.2-2.6-0.7-3.5c-0.5-0.9-1.2-1.3-2-1.3c-0.9,0-1.5,0.4-2,1.3c-0.5,0.9-0.7,2.1-0.7,3.5C70.5,63.7,70.7,64.8,71.2,65.7z"
				/>
		</g>
	</g>
</g>
<g>
	<path d="M50.3,100.7C22.6,100.7,0,78.1,0,50.3S22.6,0,50.3,0s50.3,22.6,50.3,50.3S78.1,100.7,50.3,100.7z M50.3,5
		C25.3,5,5,25.3,5,50.3c0,25,20.3,45.3,45.3,45.3c25,0,45.3-20.3,45.3-45.3C95.7,25.3,75.3,5,50.3,5z"/>
</g>
</svg>
