<?xml version="1.0" encoding="utf-8"?>
<!-- Generator: Adobe Illustrator 21.1.0, SVG Export Plug-In . SVG Version: 6.00 Build 0)  -->
<svg version="1.1" id="Layer_1" xmlns="http://www.w3.org/2000/svg" xmlns:xlink="http://www.w3.org/1999/xlink" x="0px" y="0px"
	 viewBox="0 0 371 422" style="enable-background:new 0 0 371 422;" xml:space="preserve">
<path d="M312.5,8.848h-254c-3.866,0-7,3.134-7,7v29.9h-8.168V7c0-3.866-3.134-7-7-7H7C3.134,0,0,3.134,0,7v408c0,3.866,3.134,7,7,7
	h29.332c3.866,0,7-3.134,7-7v-38.748H51.5v29.9c0,3.866,3.134,7,7,7h254c3.866,0,7-3.134,7-7V15.848
	C319.5,11.982,316.366,8.848,312.5,8.848L312.5,8.848L312.5,8.848z M43.332,95.08H51.5v231.84h-8.168V95.08z M51.5,59.748V81.08
	h-8.168V59.748H51.5z M29.332,408H14V14h15.332V408z M43.332,362.252V340.92H51.5v21.332H43.332z M305.5,399.152h-240V22.848h240
	V399.152z"/>
<path d="M364,0h-29.332c-3.866,0-7,3.134-7,7v408c0,3.866,3.134,7,7,7H364c3.866,0,7-3.134,7-7V7C371,3.134,367.866,0,364,0z
	 M357,408h-15.332V14H357V408z"/>
<path d="M224.168,218h42c3.866,7.946,13.441,11.253,21.387,7.387c7.946-3.866,11.254-13.441,7.388-21.387
	c-3.866-7.946-13.441-11.253-21.388-7.387c-3.22,1.567-5.821,4.168-7.387,7.387h-42c-3.866,0-7,3.134-7,7S220.302,218,224.168,218z"
	/>
</svg>
