<?xml version="1.0" encoding="utf-8"?>
<!-- Generator: Adobe Illustrator 21.1.0, SVG Export Plug-In . SVG Version: 6.00 Build 0)  -->
<svg version="1.1" id="Слой_1" xmlns="http://www.w3.org/2000/svg" xmlns:xlink="http://www.w3.org/1999/xlink" x="0px" y="0px"
	 viewBox="0 0 57 38" style="enable-background:new 0 0 57 38;" xml:space="preserve">
<g id="Слой_x0020_1">
	<g id="_935785168">
		<path d="M29.334,7.921c0,0.461-0.374,0.834-0.834,0.834s-0.834-0.373-0.834-0.834c0-0.46,0.374-0.834,0.834-0.834
			S29.334,7.461,29.334,7.921z"/>
		<path d="M25.283,2.554c1.985-1.192,4.45-1.192,6.435,0c0.134,0.081,0.28,0.118,0.426,0.118c0.282,0,0.556-0.143,0.712-0.402
			c0.236-0.392,0.109-0.902-0.284-1.138c-2.511-1.508-5.631-1.508-8.143,0c-0.393,0.236-0.52,0.746-0.284,1.138
			C24.381,2.663,24.89,2.789,25.283,2.554z"/>
		<path d="M31.03,5.313c0.235-0.393,0.108-0.903-0.285-1.139c-1.385-0.831-3.105-0.831-4.49,0c-0.393,0.236-0.52,0.746-0.284,1.139
			c0.236,0.392,0.745,0.52,1.138,0.284c0.859-0.515,1.925-0.515,2.782,0c0.135,0.08,0.282,0.118,0.427,0.118
			C30.6,5.716,30.874,5.571,31.03,5.313z"/>
		<path d="M55.088,2.664h-1.773c-0.945,0-1.715,0.769-1.715,1.716v2.715h-1.887v-1.83c0-0.274-0.136-0.532-0.364-0.686
			c-0.228-0.154-0.517-0.185-0.773-0.083l-17.726,7.091c-0.314,0.126-0.521,0.431-0.521,0.769v24.816
			c0,0.274,0.136,0.531,0.364,0.686C30.833,37.952,30.995,38,31.159,38c0.104,0,0.209-0.019,0.307-0.059l17.726-7.091
			c0.314-0.127,0.521-0.43,0.521-0.769v-1.83H51.6v3.602c0,0.458,0.371,0.829,0.829,0.829h3.545c0.458,0,0.829-0.372,0.829-0.829
			V4.38C56.803,3.433,56.034,2.664,55.088,2.664L55.088,2.664z M53.259,4.38c0-0.032,0.026-0.058,0.056-0.058h1.773
			c0.031,0,0.056,0.026,0.056,0.058v2.715h-1.886V4.38z M39.078,10.082l1.887-0.755v23.03l-1.887,0.754V10.082z M37.419,33.774
			l-1.886,0.754V11.5l1.886-0.755V33.774z M31.988,12.918l1.886-0.755v23.03l-1.886,0.754V12.918z M48.054,29.52l-1.886,0.755
			V14.128c0-0.457-0.371-0.829-0.829-0.829c-0.457,0-0.829,0.372-0.829,0.829v16.81l-1.886,0.754V8.663l1.886-0.755v2.675
			c0,0.457,0.372,0.829,0.829,0.829c0.459,0,0.829-0.372,0.829-0.829V7.245l1.886-0.754V29.52z M49.713,26.593V8.754H51.6v17.839
			H49.713z M53.259,31.024V8.754h1.886v22.271H53.259z"/>
		<path d="M26.149,11.586L8.424,4.496C8.169,4.394,7.878,4.424,7.651,4.579C7.423,4.733,7.287,4.991,7.287,5.265v1.83H5.4V4.38
			c0-0.947-0.769-1.716-1.715-1.716H1.912c-0.945,0-1.715,0.769-1.715,1.716v27.474c0,0.458,0.372,0.829,0.829,0.829h3.545
			c0.459,0,0.829-0.372,0.829-0.829v-3.602h1.887v1.83c0,0.339,0.206,0.644,0.521,0.769l17.726,7.091
			C25.632,37.981,25.737,38,25.841,38c0.164,0,0.326-0.048,0.466-0.142c0.228-0.155,0.363-0.412,0.363-0.687V12.356
			C26.67,12.017,26.464,11.712,26.149,11.586z M19.581,10.744l1.886,0.755v23.028l-1.886-0.754V10.744z M17.922,33.11l-1.887-0.754
			V9.326l1.887,0.755V33.11z M1.912,4.322h1.774c0.03,0,0.056,0.026,0.056,0.058v2.715H1.855V4.38
			C1.855,4.348,1.881,4.322,1.912,4.322z M3.741,31.024H1.855V8.754h1.886V31.024z M5.4,26.593V8.754h1.887v17.839H5.4z
			 M8.946,6.491l1.886,0.754v16.632c0,0.457,0.371,0.829,0.829,0.829c0.458,0,0.829-0.372,0.829-0.829V7.908l1.886,0.755v23.029
			l-1.886-0.754v-3.515c0-0.459-0.372-0.829-0.829-0.829c-0.459,0-0.829,0.371-0.829,0.829v2.853L8.946,29.52V6.491z M25.012,35.946
			l-1.886-0.754v-23.03l1.886,0.755V35.946z"/>
	</g>
</g>
</svg>
