<?xml version="1.0" encoding="utf-8"?>
<!-- Generator: Adobe Illustrator 21.1.0, SVG Export Plug-In . SVG Version: 6.00 Build 0)  -->
<svg version="1.1" id="Слой_1" xmlns="http://www.w3.org/2000/svg" xmlns:xlink="http://www.w3.org/1999/xlink" x="0px" y="0px"
	 viewBox="0 0 511 511" style="enable-background:new 0 0 511 511;" xml:space="preserve">
<path d="M359.122,251.403c24.355-34.772,37.228-75.59,37.228-118.043V38.709c0-4.674-3.248-8.725-7.809-9.743L259.668,0.238
	c-1.431-0.316-2.912-0.316-4.343,0L126.455,28.967c-4.565,1.018-7.809,5.068-7.809,9.743v94.651
	c0,42.452,12.873,83.271,37.228,118.039c24.355,34.772,58.316,60.819,98.214,75.329c1.099,0.398,2.257,0.6,3.407,0.6
	c1.154,0,2.312-0.203,3.411-0.6C300.806,312.221,334.767,286.171,359.122,251.403z M257.496,306.689
	c-34.55-13.322-63.98-36.339-85.271-66.741c-21.992-31.396-33.618-68.253-33.618-106.588V46.709l118.889-26.503l118.893,26.503
	v86.651c0,38.331-11.626,75.189-33.618,106.588C321.476,270.35,292.046,293.368,257.496,306.689z"/>
<path d="M359.41,68.32c0-4.678-3.244-8.725-7.809-9.743l-91.93-20.495c-1.431-0.316-2.916-0.316-4.347,0l-91.934,20.495
	c-5.38,1.201-8.768,6.534-7.567,11.914c1.197,5.38,6.534,8.768,11.91,7.567l89.762-20.008l81.953,18.269v57.041
	c0,30.713-9.314,60.242-26.932,85.399c-14.156,20.21-33.111,36.585-55.021,47.591c-21.91-11.002-40.861-27.38-55.017-47.591
	c-15.24-21.758-24.394-47.193-26.468-73.548c-0.175-2.199-0.3-4.421-0.374-6.612c-0.191-5.513-4.842-9.821-10.32-9.633
	c-5.509,0.191-9.821,4.811-9.63,10.32c0.086,2.483,0.226,5.006,0.421,7.493c2.355,29.906,12.737,58.756,30.019,83.431
	c17.072,24.37,40.3,43.832,67.177,56.277c1.329,0.616,2.764,0.924,4.195,0.924s2.862-0.308,4.191-0.924
	c26.881-12.448,50.109-31.906,67.177-56.277c19.98-28.526,30.546-62.019,30.546-96.85V68.32H359.41z"/>
<path d="M229.063,185.169c1.747,2.066,4.253,3.333,6.955,3.513c0.222,0.016,0.444,0.023,0.667,0.023
	c2.464,0,4.854-0.912,6.694-2.577l72.359-65.466c4.086-3.696,4.402-10.008,0.706-14.097c-3.7-4.086-10.012-4.402-14.097-0.706
	l-64.705,58.538l-18.468-21.844c-3.556-4.207-9.856-4.737-14.062-1.177c-4.211,3.559-4.737,9.856-1.181,14.066L229.063,185.169z"/>
<path d="M173.453,330.307c-5.259-6.916-12.904-11.314-21.524-12.39c-8.62-1.072-17.111,1.31-23.91,6.717
	c-3.181,2.53-5.75,5.563-7.688,8.904l-2.932-3.821c-2.604-3.388-4.035-7.606-4.035-11.879v-90.039
	c0-18.394-14.967-33.361-33.361-33.361c-17.302,0-31.579,12.99-33.212,30.21L36.109,337.309c-0.94,9.867,1.844,19.657,7.867,27.61
	l84.834,110.464v25.637c0,5.513,4.468,9.98,9.98,9.98c5.509,0,9.98-4.468,9.98-9.98v-29.029c0-2.199-0.729-4.335-2.066-6.078
	L59.847,352.814c-2.959-3.906-4.331-8.745-3.867-13.622l10.686-112.655c0.655-6.92,6.39-12.136,13.337-12.136
	c7.392,0,13.4,6.012,13.4,13.4v90.039c0,8.647,2.901,17.181,8.168,24.035l20.893,27.209c0.031,0.043,0.062,0.086,0.094,0.129
	l16.858,21.953c3.361,4.37,9.626,5.193,13.996,1.836s5.193-9.622,1.836-13.996l-16.912-22.023
	c-3.918-5.185-2.982-12.671,2.117-16.725c2.561-2.039,5.762-2.936,9.01-2.534c3.248,0.405,6.129,2.066,8.109,4.671l40.292,52.951
	c7.93,10.421,12.296,23.372,12.296,36.468v69.208c0,5.513,4.468,9.98,9.98,9.98c5.513,0,9.98-4.468,9.98-9.98v-69.208
	c0-17.435-5.813-34.678-16.37-48.553L173.453,330.307z"/>
<path d="M476.088,337.309l-10.686-112.659c-1.634-17.22-15.914-30.21-33.212-30.21c-18.394,0-33.361,14.967-33.361,33.361v90.039
	c0,4.273-1.435,8.491-4.035,11.879l-2.936,3.821c-1.934-3.337-4.503-6.37-7.684-8.904c-6.799-5.407-15.29-7.789-23.91-6.717
	c-8.62,1.076-16.265,5.474-21.524,12.39l-40.292,52.951c-10.557,13.875-16.374,31.119-16.374,48.557v69.205
	c0,5.513,4.472,9.98,9.98,9.98c5.513,0,9.98-4.468,9.98-9.98v-69.208c0-13.095,4.366-26.047,12.296-36.468l40.292-52.951
	c1.984-2.604,4.865-4.261,8.113-4.671c3.248-0.402,6.448,0.495,9.01,2.534c5.096,4.055,6.035,11.54,2.113,16.725l-16.908,22.023
	c-3.357,4.374-2.534,10.639,1.836,13.996s10.635,2.534,13.996-1.836l16.854-21.953c0.031-0.039,0.058-0.078,0.09-0.117
	l20.901-27.216c5.263-6.858,8.164-15.392,8.164-24.039v-90.039c0-7.388,6.012-13.4,13.4-13.4c6.947,0,12.682,5.216,13.341,12.136
	l10.686,112.655c0.46,4.881-0.912,9.715-3.832,13.571l-86.896,113.15c-1.337,1.743-2.062,3.883-2.062,6.082v29.025
	c0,5.513,4.468,9.98,9.98,9.98s9.98-4.468,9.98-9.98v-25.637l84.869-110.514C474.24,356.966,477.024,347.177,476.088,337.309z"/>
<path d="M160.023,111.879c3.513,2.343,8.269,2.195,11.614-0.382c3.146-2.425,4.624-6.659,3.563-10.503
	c-1.135-4.121-4.823-7.146-9.107-7.38c-4.242-0.23-8.246,2.359-9.801,6.3C154.584,104.245,156.163,109.282,160.023,111.879z"/>
</svg>
