<?xml version="1.0" encoding="utf-8"?>
<!-- Generator: Adobe Illustrator 21.1.0, SVG Export Plug-In . SVG Version: 6.00 Build 0)  -->
<svg version="1.1" id="Слой_1" xmlns="http://www.w3.org/2000/svg" xmlns:xlink="http://www.w3.org/1999/xlink" x="0px" y="0px"
	 viewBox="0 0 480 480" style="enable-background:new 0 0 480 480;" xml:space="preserve">
<path d="M135.999,272h16v16h-16V272z"/>
<path d="M167.999,272h16v16h-16V272z"/>
<path d="M199.999,272h16v16h-16V272z"/>
<path d="M135.999,304h16v16h-16V304z"/>
<path d="M167.999,304h16v16h-16V304z"/>
<path d="M199.999,304h16v16h-16V304z"/>
<path d="M231.998,304h16v16h-16V304z"/>
<path d="M263.998,304h16v16h-16V304z"/>
<path d="M135.999,335.999h16v16h-16V335.999z"/>
<path d="M167.999,335.999h16v16h-16V335.999z"/>
<path d="M199.999,335.999h16v16h-16V335.999z"/>
<path d="M231.998,335.999h16v16h-16V335.999z"/>
<path d="M263.998,335.999h16v16h-16V335.999z"/>
<path d="M135.999,367.999h16v16h-16V367.999z"/>
<path d="M167.999,367.999h16v16h-16V367.999z"/>
<path d="M199.999,367.999h16v16h-16V367.999z"/>
<path d="M231.998,367.999h16v16h-16V367.999z"/>
<path d="M263.998,367.999h16v16h-16V367.999z"/>
<path d="M135.999,399.999h16v16h-16V399.999z"/>
<path d="M167.999,399.999h16v16h-16V399.999z"/>
<path d="M199.999,399.999h16v16h-16V399.999z"/>
<path d="M231.998,399.999h16v16h-16V399.999z"/>
<path d="M263.998,399.999h16v16h-16V399.999z"/>
<path d="M135.999,431.999h16v16h-16V431.999z"/>
<path d="M167.999,431.999h16v16h-16V431.999z"/>
<path d="M199.999,431.999h16v16h-16V431.999z"/>
<path d="M231.998,431.999h16v16h-16V431.999z"/>
<path d="M263.998,431.999h16v16h-16V431.999z"/>
<path d="M471.997,24.002h-56v-16c0-4.418-3.582-8-8-8h-79.999c-4.418,0-8,3.582-8,8v16H8c-4.418,0-8,3.582-8,8v32
	c0,4.422,3.582,8,8,8h24V224c0,4.422,3.582,8,8,8s8,3.582,8,8c0,4.422-3.582,8-8,8s-8-3.578-8-8H16
	c0.023,5.855,2.199,11.5,6.121,15.851L1.602,283.203l0.102,0.078C0.633,284.625,0.035,286.285,0,288v32
	c0,2.125,0.844,4.156,2.344,5.656l16,16c1.5,1.5,3.535,2.344,5.656,2.344h32c2.121,0,4.156-0.844,5.656-2.344l16-16
	c1.5-1.5,2.344-3.531,2.344-5.656v-32c-0.035-1.715-0.633-3.375-1.703-4.719l0.102-0.078l-20.519-27.351
	c5.344-5.937,7.359-14.156,5.371-21.89C61.265,226.227,55.539,220,48,217.371V72.001h271.998v8c0,4.422,3.582,8,8,8h16v375.997h-32
	V144.001h-16v32h-48v-16h-16v16h-48v-8h-16v8h-48v-24h103.999v-16H119.999v-32h-16v359.997H91.312l-37.656-37.652
	c-3.125-3.125-8.187-3.125-11.312,0L4.687,463.998H0v16h479.997v-16h-6.238c5.629-6.145,7.629-14.793,5.27-22.789
	c-2.355-7.992-8.727-14.172-16.793-16.281c4.066-10.027,0.926-21.531-7.676-28.097c-8.598-6.566-20.527-6.566-29.125,0
	c-8.602,6.566-11.742,18.07-7.676,28.097c-8.066,2.109-14.437,8.289-16.793,16.281c-2.359,7.996-0.359,16.644,5.27,22.789h-14.238
	V88.001h16c4.418,0,8-3.578,8-8v-8h56c4.418,0,8-3.578,8-8v-32C479.997,27.584,476.415,24.002,471.997,24.002z M44,264l12,16H24
	l12-16H44z M64,316.691l-11.312,11.309H27.312L16,316.691V296h48V316.691z M437.598,40.001l-21.601,14.402V40.001H437.598z
	 M335.998,16.002h32v32h-32V16.002z M119.999,41.603l21.601,14.398H98.398L119.999,41.603z M71.999,54.404L50.398,40.001h43.203
	L71.999,54.404z M146.397,40.001H189.6l-21.601,14.402L146.397,40.001z M215.998,41.603L237.6,56.001h-43.203L215.998,41.603z
	 M242.397,40.001H285.6l-21.601,14.402L242.397,40.001z M16,40.001h5.602l24,16H16V40.001z M290.396,56.001l24-16h5.602v16H290.396z
	 M375.997,437.6l-14.398-21.601l14.398-21.598V437.6z M375.997,245.602L361.599,224l14.398-21.598V245.602z M359.997,250.402
	L374.396,272l-14.398,21.601V250.402z M359.997,197.602v-43.199L374.396,176L359.997,197.602z M359.997,346.402l14.398,21.598
	L359.997,389.6V346.402z M375.997,341.554l-14.398-21.555l14.398-21.598V341.554z M361.599,128.001l14.398-21.597v43.199
	L361.599,128.001z M359.997,101.603V88.001h9.055L359.997,101.603z M295.998,192V272h-48V192H295.998z M231.998,192v68.8
	L213.6,242.617c-1.492-1.473-3.504-2.305-5.602-2.312h-24V192H231.998z M167.999,192v13.336h-48V192H167.999z M48,443.311
	l20.687,20.687H27.312L48,443.311z M119.999,463.998V221.336h48v27c0,4.422,3.582,8,8,8h28.711l29.687,29.355
	c1.492,1.473,3.504,2.305,5.602,2.309h56v175.999H119.999z M359.997,442.401l14.398,21.598h-14.398V442.401z M455.997,455.998
	c-4.418,0-8-3.578-8-8c0-4.418,3.582-8,8-8s8,3.582,8,8C463.997,452.42,460.415,455.998,455.997,455.998z M439.997,407.999
	c4.418,0,8,3.582,8,8c0,4.422-3.582,8-8,8s-8-3.578-8-8C431.997,411.581,435.579,407.999,439.997,407.999z M423.997,439.999
	c4.418,0,8,3.582,8,8c0,4.422-3.582,8-8,8s-8-3.578-8-8C415.997,443.581,419.579,439.999,423.997,439.999z M399.997,72.001h-64v-8
	h40c4.418,0,8-3.578,8-8v-40h16V72.001z M442.395,56.001l21.601-14.398v14.398H442.395z"/>
</svg>
