<?xml version="1.0" encoding="utf-8"?>
<!-- Generator: Adobe Illustrator 21.1.0, SVG Export Plug-In . SVG Version: 6.00 Build 0)  -->
<svg version="1.1" id="Слой_1" xmlns="http://www.w3.org/2000/svg" xmlns:xlink="http://www.w3.org/1999/xlink" x="0px" y="0px"
	 viewBox="0 0 108.395 84.431" style="enable-background:new 0 0 108.395 84.431;" xml:space="preserve">
<g id="Слой_x0020_1">
	<g id="_880499136">
		<g>
			<g>
				<path d="M84.793,74.327c-0.376-0.901-1.41-1.326-2.31-0.951l-15.441,6.441c-3.108,1.298-6.584,1.432-9.786,0.376L21.04,68.261
					c-2.28-0.753-4.747-0.635-6.945,0.329l-1.437,0.629c-0.894,0.392-1.301,1.433-0.91,2.327c0.391,0.893,1.433,1.3,2.327,0.909
					l1.438-0.63c1.399-0.614,2.969-0.689,4.421-0.21L56.15,83.548c1.787,0.59,3.642,0.883,5.494,0.883
					c2.303,0,4.602-0.453,6.759-1.354l15.439-6.441C84.743,76.261,85.168,75.227,84.793,74.327z"/>
			</g>
		</g>
		<g>
			<g>
				<path d="M107.731,57.58l-0.025-0.057c-1.589-3.686-5.593-5.678-9.431-4.85c0.486-1.575,0.407-3.254-0.241-4.792
					c-0.729-1.734-2.091-3.078-3.839-3.786c-0.019-0.008-0.039-0.016-0.061-0.024c-1.436-0.567-2.993-0.629-4.432-0.237v-11.45
					c0-0.976-0.791-1.767-1.767-1.767c-0.975,0-1.766,0.791-1.766,1.767v24.455L70.64,62.272c-1.684,0.588-3.536,0.588-5.216,0.001
					l-18.255-6.38v-7.118l17.481,5.978c3.529,1.21,7.457-0.495,8.993-3.881h2.21c0.976,0,1.767-0.791,1.767-1.766v-20.49
					c0-0.976-0.791-1.767-1.767-1.767h-18.37c-0.976,0-1.767,0.791-1.767,1.767v7.113l-8.547-3.279V19.265L66.668,6.353
					l19.501,12.913v7.23c0,0.976,0.791,1.767,1.766,1.767c0.976,0,1.767-0.791,1.767-1.767v-4.892l4.849,3.21
					c0.3,0.199,0.638,0.294,0.974,0.294c0.572,0,1.134-0.278,1.474-0.791c0.539-0.814,0.316-1.91-0.498-2.448l-9.625-6.374V1.767
					C86.876,0.791,86.085,0,85.109,0H74.511c-0.976,0-1.767,0.791-1.767,1.767v4.371l-5.1-3.377c-0.591-0.391-1.359-0.391-1.95,0
					L36.837,21.869c-0.814,0.539-1.036,1.635-0.498,2.448c0.539,0.814,1.635,1.037,2.448,0.498l4.849-3.211v9.492l-5.957-2.286
					c-0.229-0.09-0.481-0.182-0.79-0.288c-6.266-2.153-13.41-1.171-19.109,2.627L0.788,42.468c-0.812,0.541-1.032,1.638-0.491,2.45
					c0.541,0.811,1.638,1.031,2.45,0.49l16.992-11.319c4.789-3.192,10.771-4.024,16.005-2.226c0.256,0.088,0.457,0.161,0.651,0.238
					l31.961,12.26c0.949,0.362,1.695,1.078,2.099,2.015c0.417,0.967,0.416,2.027-0.005,2.986c-0.776,1.778-2.82,2.678-4.655,2.049
					l-20.276-6.934c-1.619-0.554-3.378-0.486-4.952,0.193c-1.955,0.843-3.387,2.504-3.93,4.558c-0.914,3.45,1.012,7.077,4.385,8.259
					l23.237,8.12c2.431,0.85,5.111,0.85,7.547,0l26.641-9.322c2.376-0.832,5.019,0.325,6.021,2.649l0.011,0.024
					c0.502,1.188,0.51,2.5,0.022,3.694c-0.489,1.197-1.415,2.13-2.608,2.627l-14.226,5.934c-0.9,0.376-1.326,1.41-0.95,2.311
					c0.283,0.678,0.939,1.087,1.631,1.087c0.226,0,0.457-0.045,0.679-0.137l14.226-5.934c2.067-0.862,3.671-2.479,4.518-4.552
					C108.617,61.918,108.603,59.643,107.731,57.58z M76.277,3.533h7.065v9.623l-7.065-4.678V3.533z M69.618,41.061l-10.369-3.977
					v-6.702h14.838v15.764c-0.097-0.397-0.225-0.789-0.388-1.169C72.913,43.157,71.463,41.765,69.618,41.061z M43.636,54.659
					l-1.447-0.506c-1.643-0.576-2.582-2.341-2.138-4.021c0.265-0.999,0.962-1.807,1.915-2.218c0.531-0.229,1.105-0.312,1.67-0.253
					V54.659z M94.79,51.939l-0.906,2.201l-4.182,1.463v-7.955l0,0c0.93-0.581,2.1-0.702,3.138-0.289
					c0.016,0.006,0.034,0.013,0.053,0.02c0.856,0.353,1.526,1.017,1.885,1.872C95.142,50.116,95.146,51.071,94.79,51.939z"/>
			</g>
		</g>
	</g>
</g>
</svg>
