<?xml version="1.0" encoding="utf-8"?>
<!-- Generator: Adobe Illustrator 21.1.0, SVG Export Plug-In . SVG Version: 6.00 Build 0)  -->
<svg version="1.1" id="Слой_1" xmlns="http://www.w3.org/2000/svg" xmlns:xlink="http://www.w3.org/1999/xlink" x="0px" y="0px"
	 viewBox="0 0 512 512" style="enable-background:new 0 0 512 512;" xml:space="preserve">
<g id="_x30_50---Interior-Design">
	<path id="Shape" d="M281.737,51.2h17.067c4.713,0,8.533-3.821,8.533-8.533s-3.821-8.533-8.533-8.533h-17.067
		c-4.713,0-8.533,3.821-8.533,8.533S277.024,51.2,281.737,51.2z"/>
	<path id="Shape_1_" d="M59.87,51.2h187.733c4.713,0,8.533-3.821,8.533-8.533s-3.821-8.533-8.533-8.533H59.87
		c-4.713,0-8.533,3.821-8.533,8.533S55.157,51.2,59.87,51.2z"/>
	<path id="Shape_2_" d="M501.086,248.414c15.741-17.536,14.285-44.513-3.251-60.254c-17.536-15.741-44.513-14.285-60.254,3.251
		c-42.957,47.829-23.33,25.975-96.111,107.034V187.733h76.8c14.138,0,25.6-11.462,25.6-25.6v-102.4
		C443.828,26.761,417.109,0.042,384.137,0H59.87C26.896,0.038,0.174,26.759,0.137,59.733V486.4c0,14.138,11.462,25.6,25.6,25.6
		H315.87c14.138,0,25.6-11.461,25.6-25.6v-60.237L501.086,248.414z M450.287,202.812c6.066-6.971,15.418-10.131,24.469-8.269
		c9.051,1.862,16.396,8.457,19.219,17.256c2.823,8.799,0.684,18.436-5.595,25.215L459.878,268.8
		c-23.526-21.12-14.711-13.21-38.101-34.219L450.287,202.812z M426.803,59.733v102.4c0,4.713-3.821,8.533-8.533,8.533h-76.8V59.733
		c0-23.564,19.103-42.667,42.667-42.667C407.701,17.067,426.803,36.169,426.803,59.733z M315.87,494.933H25.737
		c-4.713,0-8.533-3.82-8.533-8.533V59.733c0.028-23.552,19.114-42.638,42.667-42.667h282.539
		c-11.514,11.21-18.007,26.597-18.005,42.667V317.44l-34.406,38.306c-1.327-13.002-12.257-22.905-25.327-22.946v-128h25.088
		c5.576,0.107,10.856-2.505,14.156-7.001c3.3-4.496,4.207-10.316,2.433-15.604l-21.069-59.733
		c-2.539-6.965-9.184-11.58-16.597-11.529h-59.23c-7.412-0.049-14.056,4.565-16.597,11.529l-21.077,59.733
		c-1.775,5.289-0.866,11.111,2.436,15.607c3.302,4.497,8.584,7.107,14.162,6.997h25.097v128c-14.138,0-25.6,11.462-25.6,25.6v17.067
		h-25.6v-27.972c5.254-3.033,8.503-8.628,8.533-14.694v-15.189c6.727-5.99,9.78-15.093,8.026-23.928s-8.054-16.081-16.559-19.046
		v-52.77c0-18.851-15.282-34.133-34.133-34.133H85.47c-18.851,0-34.133,15.282-34.133,34.133v52.77
		c-8.509,2.961-14.813,10.208-16.567,19.044c-1.755,8.837,1.302,17.942,8.034,23.929V332.8c0.018,6.07,3.27,11.67,8.533,14.694
		v27.972c-4.713,0-8.533,3.821-8.533,8.533s3.821,8.533,8.533,8.533h214.05l-25.02,68.267h-137.83c-4.713,0-8.533,3.821-8.533,8.533
		c0,4.713,3.821,8.533,8.533,8.533h145.067c3.298-0.004,6.295-1.922,7.68-4.915l69.12-34.133V486.4
		C324.403,491.113,320.583,494.933,315.87,494.933L315.87,494.933z M314.308,424.764l-51.985,25.668l19.951-54.434L314.308,424.764z
		 M188.373,187.733c-0.853,0.23-2.935,6.827,21.077-59.733l59.733,0.145l20.574,59.588H188.373z M230.537,204.8h17.067v128h-17.067
		V204.8z M264.67,349.867c4.713,0,8.533,3.82,8.533,8.533v16.077c-1.271,1.417,6.409,0.99-68.267,0.99V358.4
		c0-4.713,3.821-8.533,8.533-8.533H264.67z M153.737,290.133c4.713,0,8.533,3.82,8.533,8.533s-3.821,8.533-8.533,8.533
		c-4.713,0-8.533-3.82-8.533-8.533S149.024,290.133,153.737,290.133z M145.203,274.637c-7.227,2.582-12.915,8.269-15.497,15.497
		H83.891c-2.58-7.225-8.264-12.913-15.488-15.497v-52.77c0-9.426,7.641-17.067,17.067-17.067h42.667
		c9.426,0,17.067,7.641,17.067,17.067V274.637z M59.87,290.133c4.713,0,8.533,3.82,8.533,8.533s-3.821,8.533-8.533,8.533
		s-8.533-3.82-8.533-8.533S55.157,290.133,59.87,290.133z M83.891,307.2h45.815c3.603,10.192,13.22,17.022,24.03,17.067v8.533H59.87
		v-8.533C70.677,324.218,80.289,317.389,83.891,307.2z M68.403,349.867h15.223l-5.12,25.6H68.403V349.867z M100.992,349.867h11.648
		l5.12,25.6H95.872L100.992,349.867z M130.005,349.867h15.198v25.6h-10.078L130.005,349.867z M328.747,414.788l-38.093-34.202
		l119.723-133.333l38.101,34.21L328.747,414.788z"/>
	<path id="Shape_3_" d="M76.937,460.8h-25.6c-4.713,0-8.533,3.821-8.533,8.533c0,4.713,3.821,8.533,8.533,8.533h25.6
		c4.713,0,8.533-3.821,8.533-8.533C85.47,464.621,81.649,460.8,76.937,460.8z"/>
</g>
</svg>
