<?xml version="1.0" encoding="utf-8"?>
<!-- Generator: Adobe Illustrator 21.1.0, SVG Export Plug-In . SVG Version: 6.00 Build 0)  -->
<svg version="1.1" id="Слой_1" xmlns="http://www.w3.org/2000/svg" xmlns:xlink="http://www.w3.org/1999/xlink" x="0px" y="0px"
	 viewBox="0 0 43 47" style="enable-background:new 0 0 43 47;" xml:space="preserve">
<g id="Слой_x0020_1">
	<g id="_1392033616">
		<path d="M21.5,21.323c-0.409,0-0.781,0.167-1.048,0.433c-0.266,0.266-0.433,0.638-0.433,1.048c0,0.41,0.167,0.781,0.433,1.048
			c0.266,0.266,0.638,0.433,1.048,0.433c0.41,0,0.781-0.167,1.048-0.433c0.266-0.266,0.433-0.638,0.433-1.048
			c0-0.409-0.167-0.781-0.433-1.048C22.281,21.49,21.909,21.323,21.5,21.323z M19.284,20.588c0.567-0.567,1.353-0.919,2.216-0.919
			c0.863,0,1.649,0.352,2.216,0.919c0.567,0.567,0.919,1.353,0.919,2.216s-0.352,1.649-0.919,2.216
			c-0.567,0.567-1.353,0.919-2.216,0.919c-0.863,0-1.649-0.352-2.216-0.919c-0.567-0.567-0.919-1.353-0.919-2.216
			S18.717,21.154,19.284,20.588z"/>
		<path d="M24.149,17.169v-5.148c0-0.729-0.299-1.393-0.778-1.871S22.229,9.372,21.5,9.372c-0.728,0-1.392,0.299-1.871,0.778
			c-0.481,0.477-0.779,1.142-0.779,1.871v5.148h-1.654v-5.148c0-1.181,0.486-2.258,1.266-3.038c0.778-0.78,1.856-1.265,3.038-1.265
			c1.183,0,2.261,0.485,3.04,1.263c0.779,0.779,1.263,1.857,1.263,3.04v5.148H24.149z"/>
		<path d="M13.058,16.342H30.77v15.08H12.231v-15.08H13.058z M29.116,17.996H13.885v11.771h15.231V17.996z"/>
		<path d="M21.102,40.722c0.454,0.008,0.815,0.386,0.807,0.84c-0.008,0.454-0.386,0.815-0.84,0.807
			c-5.757-0.114-10.951-2.526-14.702-6.354c-3.745-3.822-6.056-9.058-6.056-14.827c0-5.848,2.373-11.146,6.206-14.98
			C10.352,2.372,15.651,0,21.5,0c5.849,0,11.148,2.372,14.982,6.206s6.206,9.133,6.206,14.982c0,2.829-0.56,5.536-1.572,8.013
			c-1.05,2.57-2.593,4.89-4.503,6.834c-0.319,0.324-0.842,0.328-1.166,0.009c-0.324-0.319-0.328-0.842-0.009-1.166
			c1.764-1.796,3.187-3.932,4.153-6.296c0.929-2.274,1.443-4.771,1.443-7.393c0-5.395-2.187-10.28-5.72-13.814
			c-3.534-3.533-8.418-5.72-13.814-5.72c-5.395,0-10.28,2.187-13.814,5.72c-3.532,3.532-5.72,8.419-5.72,13.814
			c0,5.324,2.128,10.151,5.577,13.671C11.004,38.391,15.795,40.617,21.102,40.722z"/>
		<path d="M20.673,25.111c0-0.456,0.371-0.827,0.827-0.827c0.456,0,0.827,0.371,0.827,0.827v2.33c0,0.456-0.371,0.827-0.827,0.827
			c-0.456,0-0.827-0.371-0.827-0.827V25.111z"/>
		<path d="M16.292,37.51c-0.323-0.323-0.323-0.846,0-1.168c0.323-0.323,0.846-0.323,1.168,0l4.623,4.623
			c0.323,0.323,0.323,0.846,0,1.168l-4.623,4.623c-0.323,0.323-0.846,0.323-1.168,0c-0.323-0.323-0.323-0.846,0-1.168l4.039-4.039
			L16.292,37.51z"/>
	</g>
</g>
</svg>
