<?xml version="1.0" encoding="utf-8"?>
<!-- Generator: Adobe Illustrator 21.1.0, SVG Export Plug-In . SVG Version: 6.00 Build 0)  -->
<svg version="1.1" id="Слой_1" xmlns="http://www.w3.org/2000/svg" xmlns:xlink="http://www.w3.org/1999/xlink" x="0px" y="0px"
	 viewBox="0 0 47 42" style="enable-background:new 0 0 47 42;" xml:space="preserve">
<g id="Слой_x0020_1">
	<g id="_1339815504">
		<polygon points="4.637,12.92 4.637,41.938 2.96,41.938 2.96,12.92 		"/>
		<polygon points="43.901,12.92 43.901,41.938 42.224,41.938 42.224,12.92 		"/>
		<path d="M9.415,28.975h28.03c0.271,0,0.514,0.107,0.695,0.288c0.176,0.176,0.289,0.425,0.289,0.696v7.243
			c0,0.275-0.113,0.519-0.289,0.695c-0.176,0.176-0.42,0.289-0.695,0.289H9.415c-0.271,0-0.52-0.113-0.696-0.289
			c-0.181-0.181-0.288-0.423-0.288-0.695v-7.243c0-0.266,0.107-0.515,0.288-0.696S9.149,28.975,9.415,28.975z M36.752,30.653H10.109
			v5.856h26.643V30.653z"/>
		<path d="M9.27,34.42c-0.463,0-0.839-0.376-0.839-0.838c0-0.463,0.376-0.839,0.839-0.839h20.647c0.463,0,0.839,0.376,0.839,0.839
			c0,0.463-0.376,0.838-0.839,0.838H9.27z"/>
		<circle cx="33.625" cy="33.581" r="0.839"/>
		<polygon points="13.153,37.347 13.153,41.938 11.475,41.938 11.475,37.347 		"/>
		<polygon points="16.812,37.347 16.812,41.938 15.134,41.938 15.134,37.347 		"/>
		<polygon points="31.725,37.347 31.725,41.938 30.048,41.938 30.048,37.347 		"/>
		<polygon points="35.384,37.347 35.384,41.938 33.707,41.938 33.707,37.347 		"/>
		<path d="M1.007,13.927c-0.163,0-0.313-0.037-0.458-0.109c-0.197-0.099-0.35-0.253-0.442-0.45l-0.012-0.026
			C0.032,13.202,0,13.054,0,12.909c0-0.162,0.04-0.345,0.124-0.522L5.538,0.554c0.14-0.306,0.444-0.488,0.76-0.488L40.7,0.062
			c0.362,0,0.671,0.231,0.789,0.552l5.386,11.773C46.958,12.566,47,12.745,47,12.911c0,0.161-0.041,0.329-0.12,0.483
			c-0.094,0.181-0.24,0.328-0.431,0.423c-0.145,0.072-0.295,0.109-0.458,0.109H1.007z M6.834,1.74l-4.809,10.51h42.949L40.165,1.74
			H6.834z"/>
		<polygon points="3.189,24.926 14.855,12.514 16.073,13.661 4.407,26.073 		"/>
		<polygon points="3.189,18.965 9.253,12.514 10.472,13.661 4.407,20.112 		"/>
		<polygon points="42.454,26.073 30.788,13.661 32.006,12.514 43.672,24.926 		"/>
		<polygon points="42.454,20.112 36.389,13.661 37.607,12.514 43.672,18.965 		"/>
		<g>
			<polygon points="10.185,0.55 15.849,12.737 14.329,13.439 8.665,1.252 			"/>
			<g>
				<path d="M17.68,0.55c1.889,4.062,3.777,8.124,5.665,12.187c-0.507,0.234-1.014,0.469-1.52,0.702
					c-1.888-4.062-3.776-8.125-5.665-12.187C16.667,1.019,17.173,0.784,17.68,0.55z"/>
				<path d="M25.175,0.55c1.889,4.062,3.777,8.124,5.665,12.187c-0.507,0.234-1.013,0.469-1.52,0.702
					c-1.888-4.062-3.776-8.125-5.665-12.187C24.162,1.019,24.669,0.784,25.175,0.55z"/>
			</g>
			<polygon points="32.671,0.55 38.335,12.737 36.815,13.439 31.15,1.252 			"/>
		</g>
		<g>
			<polygon points="36.815,0.55 31.15,12.737 32.671,13.439 38.335,1.252 			"/>
			<g>
				<path d="M29.32,0.55c-1.889,4.062-3.777,8.124-5.665,12.187c0.507,0.234,1.013,0.469,1.52,0.702
					c1.888-4.062,3.776-8.125,5.665-12.187C30.333,1.019,29.827,0.784,29.32,0.55z"/>
				<path d="M21.824,0.55c-1.889,4.062-3.777,8.124-5.665,12.187c0.507,0.234,1.014,0.469,1.52,0.702
					c1.888-4.062,3.776-8.125,5.665-12.187C22.838,1.019,22.331,0.784,21.824,0.55z"/>
			</g>
			<polygon points="14.329,0.55 8.665,12.737 10.185,13.439 15.849,1.252 			"/>
		</g>
	</g>
</g>
</svg>
