<?xml version="1.0" encoding="utf-8"?>
<!-- Generator: Adobe Illustrator 21.1.0, SVG Export Plug-In . SVG Version: 6.00 Build 0)  -->
<svg version="1.1" id="Layer_3" xmlns="http://www.w3.org/2000/svg" xmlns:xlink="http://www.w3.org/1999/xlink" x="0px" y="0px"
	 viewBox="0 0 512 512" style="enable-background:new 0 0 512 512;" xml:space="preserve">
<path d="M496,8H256c-4.416,0-8,3.584-8,8v136h-16v-8c0-0.12-0.064-0.224-0.072-0.336c-0.04-0.944-0.184-1.88-0.56-2.76
	c-0.008-0.024-0.032-0.048-0.048-0.072c-0.288-0.656-0.656-1.288-1.12-1.864l-104-128c-3.032-3.744-9.384-3.744-12.416,0l-104,128
	c-0.464,0.576-0.832,1.208-1.12,1.864c-0.008,0.024-0.032,0.048-0.048,0.072c-0.368,0.88-0.52,1.816-0.56,2.76
	C8.064,143.776,8,143.88,8,144v176c0,4.416,3.584,8,8,8h8v168c0,4.416,3.584,8,8,8h32c4.416,0,8-3.584,8-8v-8h96v8
	c0,4.416,3.584,8,8,8h32c4.416,0,8-3.584,8-8V328h8h24v104c0,4.416,3.584,8,8,8h32c4.416,0,8-3.584,8-8v-99.256
	c5.64,2.112,11.008,4.88,16,8.336V496c0,4.416,3.584,8,8,8h100.288H424h72c4.416,0,8-3.584,8-8v-32c0-4.416-3.584-8-8-8h-56V264h16
	v168c0,4.416,3.584,8,8,8h32c4.416,0,8-3.584,8-8V256V16C504,11.584,500.416,8,496,8z M432,56c13.232,0,24,10.768,24,24
	s-10.768,24-24,24s-24-10.768-24-24S418.768,56,432,56z M432,40c-2.736,0-5.416,0.28-8,0.808V24h16v16.808
	C437.416,40.28,434.736,40,432,40z M320,56c13.232,0,24,10.768,24,24s-10.768,24-24,24s-24-10.768-24-24S306.768,56,320,56z M320,40
	c-2.736,0-5.416,0.28-8,0.808V24h16v16.808C325.416,40.28,322.736,40,320,40z M264,24h32v24.208c-9.656,7.304-16,18.776-16,31.792
	c0,22.056,17.944,40,40,40s40-17.944,40-40c0-13.016-6.344-24.488-16-31.792V24h64v24.208c-9.656,7.304-16,18.776-16,31.792
	c0,22.056,17.944,40,40,40s40-17.944,40-40c0-13.016-6.344-24.488-16-31.792V24h32v224h-24h-8V144c0-4.416-3.584-8-8-8H304
	c-4.416,0-8,3.584-8,8v104h-32v-8v-80V24z M296,281.984V264h16v22.136C306.784,284.392,301.456,282.976,296,281.984z M216,312h-8h-8
	v-64c0-44.112-35.888-80-80-80s-80,35.888-80,80v64h-8h-8V152h192v8v80v48V312z M72,424h96v16H72V424z M72,408v-16h96v16H72z
	 M72,376v-16h96v16H72z M72,344v-16h96v16H72z M64,312h-8v-64c0-35.288,28.712-64,64-64s64,28.712,64,64v64h-8H64z M232,248h16v8v24
	h-16V248z M264,264h16v16.256c-1.752-0.08-3.488-0.256-5.256-0.256H264V264z M312,248v-96h128v96H312z M248,168v64h-16v-64H248z
	 M120,28.688L207.192,136H32.808L120,28.688z M56,488H40V328h8h8V488z M72,472v-16h96v16H72z M200,488h-16V328h8h8V488z M264,424
	v-16h16v16H264z M280,392h-16v-64h6.056c3.36,0,6.664,0.304,9.944,0.744V392z M328,488V356.064c10.344,13.016,16,29,16,45.872
	v25.776c0,20.376,7.936,39.536,22.344,53.944c2.304,2.304,4.768,4.376,7.296,6.344H328z M488,488h-64h-3.712
	c-16.104,0-31.24-6.272-42.632-17.656S360,443.816,360,427.712v-25.776c0-24.024-9.352-46.608-26.344-63.6S294.08,312,270.056,312
	H232v-16h42.744c27.048,0,52.472,10.528,71.6,29.656S376,370.208,376,397.256v25.776c0,13.08,5.096,25.376,14.344,34.624
	S411.888,472,424.968,472H488V488z M424,455.904c-8.44-0.248-16.352-3.568-22.344-9.56c-6.224-6.224-9.656-14.512-9.656-23.312
	v-25.776c0-31.32-12.192-60.768-34.344-82.912c-8.824-8.832-18.848-16-29.656-21.52V264h96V455.904z M488,264v128h-16V264H488z
	 M472,424v-16h16v16H472z"/>
</svg>
