<?xml version="1.0" encoding="utf-8"?>
<!-- Generator: Adobe Illustrator 21.1.0, SVG Export Plug-In . SVG Version: 6.00 Build 0)  -->
<svg version="1.1" id="Capa_1" xmlns="http://www.w3.org/2000/svg" xmlns:xlink="http://www.w3.org/1999/xlink" x="0px" y="0px"
	 viewBox="0 0 311.303 445.113" style="enable-background:new 0 0 311.303 445.113;" xml:space="preserve">
<style type="text/css">
	.st0{fill:none;stroke:#000000;stroke-width:15;stroke-linecap:round;stroke-linejoin:round;stroke-miterlimit:10;}
</style>
<g>
	<path id="Facebook_Places" class="st0" d="M296.803,114.551c-1.531-5.738-4.64-11.852-6.94-17.205
		C262.341,31.204,202.206,7.5,153.65,7.5C88.649,7.5,17.058,51.086,7.5,140.927v18.355c0,0.766,0.264,7.647,0.639,11.089
		c5.358,42.816,39.143,88.32,64.375,131.136c27.146,45.873,55.314,90.999,83.221,136.106c17.208-29.436,34.354-59.259,51.17-87.933
		c4.583-8.415,9.903-16.825,14.491-24.857c3.058-5.348,8.9-10.696,11.569-15.672c27.145-49.699,70.838-99.782,70.838-149.104
		v-20.262C303.804,134.438,297.176,115.704,296.803,114.551z M154.84,206.693c-19.107,0-40.021-9.554-50.344-35.939
		c-1.538-4.2-1.414-12.617-1.414-13.388v-11.852c0-33.636,28.56-48.932,53.406-48.932c30.588,0,54.245,24.472,54.245,55.06
		C210.733,182.229,185.428,206.693,154.84,206.693z"/>
</g>
</svg>
