<?xml version="1.0" encoding="utf-8"?>
<!-- Generator: Adobe Illustrator 21.1.0, SVG Export Plug-In . SVG Version: 6.00 Build 0)  -->
<svg version="1.1" id="Слой_1" xmlns="http://www.w3.org/2000/svg" xmlns:xlink="http://www.w3.org/1999/xlink" x="0px" y="0px"
	 viewBox="0 0 22 19" style="enable-background:new 0 0 22 19;" xml:space="preserve">
<g id="Слой_x0020_1">
	<g id="_1446614592">
		<path d="M8.426,15.15c0.53,0,1.014,0.216,1.361,0.564c0.347,0.347,0.565,0.83,0.565,1.36s-0.217,1.014-0.565,1.361
			C9.44,18.783,8.958,19,8.426,19c-0.531,0-1.013-0.217-1.36-0.565c-0.347-0.347-0.565-0.831-0.565-1.361s0.217-1.013,0.565-1.36
			C7.413,15.366,7.896,15.15,8.426,15.15z M9.166,16.337c-0.188-0.188-0.452-0.307-0.739-0.307c-0.288,0-0.551,0.119-0.738,0.307
			c-0.188,0.187-0.307,0.45-0.307,0.738s0.119,0.551,0.307,0.739c0.188,0.188,0.451,0.307,0.738,0.307
			c0.289,0,0.551-0.119,0.739-0.307c0.187-0.188,0.306-0.452,0.306-0.739S9.353,16.524,9.166,16.337z"/>
		<path d="M17.509,15.15c0.531,0,1.014,0.216,1.361,0.564c0.347,0.347,0.565,0.83,0.565,1.36s-0.217,1.014-0.565,1.361
			S18.041,19,17.509,19c-0.531,0-1.013-0.217-1.36-0.565c-0.347-0.347-0.564-0.831-0.564-1.361s0.216-1.013,0.564-1.36
			C16.496,15.366,16.978,15.15,17.509,15.15z M18.249,16.337c-0.188-0.188-0.452-0.307-0.739-0.307s-0.551,0.119-0.738,0.307
			c-0.188,0.187-0.307,0.45-0.307,0.738s0.119,0.551,0.307,0.739c0.187,0.188,0.45,0.307,0.738,0.307
			c0.289,0,0.551-0.119,0.739-0.307s0.307-0.452,0.307-0.739S18.436,16.524,18.249,16.337z"/>
		<path d="M6.619,11.415L4.832,2.907C4.783,2.67,4.934,2.437,5.171,2.388l15.974-0.01c0.122,0,0.216,0,0.324,0.028
			c0.424,0.112,0.529,0.328,0.363,0.955l-2.369,8.538c-0.054,0.194-0.232,0.32-0.423,0.322L7.144,12.222
			c-0.286,0-0.549,0.119-0.737,0.306C6.218,12.717,6.1,12.979,6.1,13.266s0.119,0.551,0.307,0.738
			c0.189,0.189,0.452,0.308,0.738,0.308h11.852c0.242,0,0.439,0.196,0.439,0.439s-0.197,0.44-0.439,0.44H7.144
			c-0.529,0-1.011-0.217-1.36-0.566c-0.346-0.347-0.564-0.831-0.564-1.36c0-0.523,0.214-1.002,0.557-1.35l0.009-0.009
			C6.015,11.678,6.299,11.506,6.619,11.415z M5.802,3.258L7.5,11.341h11.206l2.243-8.083H5.802z"/>
		<path d="M7.574,11.692c0.048,0.237-0.103,0.471-0.341,0.519c-0.236,0.047-0.47-0.103-0.518-0.341L4.405,0.88H0.533
			c-0.243,0-0.44-0.196-0.44-0.439S0.29,0,0.533,0H4.76c0.204,0.002,0.387,0.144,0.43,0.351L7.574,11.692z"/>
	</g>
</g>
</svg>
