<?xml version="1.0" encoding="utf-8"?>
<!-- Generator: Adobe Illustrator 21.1.0, SVG Export Plug-In . SVG Version: 6.00 Build 0)  -->
<svg version="1.1" id="Слой_1" xmlns="http://www.w3.org/2000/svg" xmlns:xlink="http://www.w3.org/1999/xlink" x="0px" y="0px"
	 viewBox="0 0 53 49" style="enable-background:new 0 0 53 49;" xml:space="preserve">
<g id="Слой_x0020_1">
	<g id="_998774432">
		<path d="M5.081,22.575c0,0.459-0.373,0.832-0.832,0.832c-0.459,0-0.832-0.373-0.832-0.832V7.412c0-0.34,0.204-0.631,0.496-0.761
			l7.579-4.219c0.26-0.144,0.563-0.133,0.805,0l7.645,4.256c0.273,0.151,0.426,0.433,0.426,0.725l0.004,15.162
			c0,0.459-0.373,0.832-0.832,0.832c-0.459,0-0.832-0.373-0.832-0.832V7.898l-6.813-3.792L5.081,7.898V22.575z"/>
		<path d="M0.951,21.86h21.886c0.257,0,0.493,0.108,0.661,0.275c0.168,0.165,0.275,0.4,0.275,0.661v3.191
			c0,0.257-0.107,0.493-0.275,0.661s-0.404,0.275-0.661,0.275H0.951c-0.261,0-0.496-0.107-0.661-0.276
			c-0.168-0.166-0.275-0.403-0.275-0.66v-3.191c0-0.26,0.107-0.492,0.274-0.659C0.458,21.968,0.691,21.86,0.951,21.86z
			 M22.109,23.525H1.679v1.734h20.43V23.525z"/>
		<path d="M5.127,22.693c0-0.459,0.373-0.832,0.832-0.832c0.459,0,0.832,0.373,0.832,0.832v25.371c0,0.257-0.107,0.493-0.275,0.661
			C6.349,48.893,6.113,49,5.856,49H2.665c-0.261,0-0.496-0.107-0.661-0.276c-0.168-0.166-0.275-0.403-0.275-0.66V26.091
			c0-0.459,0.373-0.832,0.832-0.832c0.459,0,0.832,0.373,0.832,0.832v21.244h1.734V22.693z"/>
		<path d="M2.561,44.005c-0.459,0-0.832-0.373-0.832-0.832c0-0.459,0.373-0.832,0.832-0.832h3.399c0.459,0,0.832,0.373,0.832,0.832
			c0,0.459-0.373,0.832-0.832,0.832H2.561z"/>
		<polygon points="8.503,49 8.503,26.091 10.192,26.091 10.192,49 		"/>
		<path d="M11.894,9.978c-0.975,0-1.859,0.395-2.497,1.033c-0.637,0.637-1.033,1.522-1.033,2.497v8.353h7.059v-8.353
			c0-0.976-0.397-1.86-1.032-2.498C13.753,10.373,12.869,9.978,11.894,9.978z M8.221,9.835c0.94-0.94,2.238-1.522,3.673-1.522
			c1.432,0,2.733,0.582,3.673,1.522c0.938,0.942,1.522,2.241,1.522,3.673v10.018H6.7V13.507C6.7,12.073,7.282,10.774,8.221,9.835z"
			/>
		<path d="M16.996,22.693c0-0.459,0.373-0.832,0.832-0.832c0.459,0,0.832,0.373,0.832,0.832v24.643h1.734V26.091
			c0-0.459,0.373-0.832,0.832-0.832c0.459,0,0.832,0.373,0.832,0.832v21.973c0,0.257-0.107,0.493-0.275,0.661
			C21.616,48.893,21.38,49,21.123,49h-3.191c-0.227,0-0.433-0.08-0.591-0.213l-0.07-0.062c-0.168-0.168-0.275-0.404-0.275-0.661
			V22.693z"/>
		<path d="M22.22,23.206c-0.225-0.398-0.086-0.905,0.312-1.131c0.398-0.225,0.905-0.086,1.131,0.312l14.231,24.949h13.428v-3.461
			h-9.687c-0.325,0-0.606-0.185-0.743-0.457L27.5,20.058h-7.972c-0.459,0-0.832-0.373-0.832-0.832c0-0.459,0.373-0.832,0.832-0.832
			h8.454c0.288,0.001,0.568,0.152,0.721,0.419L42.116,42.21h9.934c0.257,0,0.493,0.107,0.661,0.275
			c0.168,0.168,0.275,0.404,0.275,0.661v4.918c0,0.257-0.107,0.493-0.275,0.661C52.543,48.893,52.307,49,52.049,49H37.412
			c-0.289-0.004-0.569-0.155-0.721-0.423L22.22,23.206z"/>
		<path d="M21.227,42.341c0.459,0,0.832,0.373,0.832,0.832c0,0.459-0.373,0.832-0.832,0.832h-3.399
			c-0.459,0-0.832-0.373-0.832-0.832c0-0.459,0.373-0.832,0.832-0.832H21.227z"/>
		<polygon points="13.596,49 13.596,26.091 15.284,26.091 15.284,49 		"/>
		<polygon points="9.347,44.792 14.44,44.792 14.44,46.463 9.347,46.463 		"/>
		<g>
			<path d="M9.347,39.549c1.698,0,3.395,0,5.093,0c0,0.557,0,1.114,0,1.672c-1.698,0-3.395,0-5.093,0
				C9.347,40.663,9.347,40.106,9.347,39.549z"/>
			<path d="M9.347,34.306c1.698,0,3.395,0,5.093,0c0,0.557,0,1.114,0,1.672c-1.698,0-3.395,0-5.093,0
				C9.347,35.421,9.347,34.864,9.347,34.306z"/>
		</g>
		<polygon points="9.347,29.064 14.44,29.064 14.44,30.735 9.347,30.735 		"/>
		<rect x="23.809" y="47.338" width="1.665" height="1.662"/>
		<rect x="31.436" y="47.338" width="1.665" height="1.662"/>
		<rect x="27.189" y="43.961" width="1.665" height="1.662"/>
		<path d="M26.244,12.486c-1.081-0.05-1.731,0.153-2.073,0.535l-0.026,0.027c-0.223,0.268-0.339,0.653-0.377,1.123l13.639-0.005
			c-0.04-0.534-0.146-0.93-0.379-1.172l-0.025-0.027c-0.336-0.327-1.003-0.489-2.166-0.489c-0.405,0-0.743-0.289-0.817-0.673
			c-0.149-0.602-0.552-1.058-1.088-1.368c-0.598-0.346-1.358-0.523-2.133-0.534c-0.794-0.011-1.6,0.149-2.27,0.47
			c-0.7,0.334-1.251,0.851-1.457,1.525C26.96,12.268,26.613,12.501,26.244,12.486z M22.936,11.909
			c0.588-0.655,1.48-1.047,2.788-1.086c0.437-0.863,1.188-1.513,2.089-1.944c0.902-0.432,1.968-0.647,3.004-0.633
			c1.054,0.014,2.101,0.264,2.948,0.753c0.74,0.428,1.336,1.038,1.676,1.831c1.3,0.073,2.159,0.394,2.737,0.969l0.046,0.045
			c0.679,0.707,0.866,1.667,0.866,2.921c0,1.094-1.025,1.063-1.036,1.063l-14.964,0.002c-0.46,0.018-0.953,0.03-0.987-0.925
			l-0.001-0.017c-0.052-1.166,0.15-2.173,0.784-2.919L22.936,11.909z"/>
		<path d="M40.137,4.242c-1.081-0.05-1.731,0.153-2.073,0.535l-0.026,0.027c-0.223,0.268-0.339,0.653-0.377,1.123l13.639-0.005
			c-0.04-0.534-0.146-0.93-0.379-1.172l-0.025-0.027c-0.336-0.327-1.003-0.489-2.166-0.489c-0.405,0-0.742-0.289-0.817-0.673
			c-0.149-0.602-0.553-1.058-1.089-1.368c-0.598-0.346-1.358-0.523-2.133-0.534c-0.794-0.011-1.6,0.149-2.27,0.47
			c-0.7,0.334-1.251,0.851-1.457,1.525C40.854,4.023,40.507,4.257,40.137,4.242z M36.829,3.664c0.588-0.655,1.48-1.047,2.788-1.086
			c0.437-0.863,1.188-1.513,2.089-1.944c0.902-0.432,1.968-0.647,3.004-0.633c1.054,0.014,2.101,0.264,2.948,0.753
			c0.74,0.428,1.336,1.038,1.676,1.831c1.3,0.073,2.159,0.394,2.738,0.969l0.046,0.045c0.679,0.707,0.866,1.667,0.866,2.921
			c0,1.094-1.025,1.062-1.036,1.062L36.985,7.585c-0.46,0.018-0.953,0.03-0.987-0.926l-0.001-0.017
			c-0.052-1.166,0.15-2.173,0.784-2.919L36.829,3.664z"/>
	</g>
</g>
</svg>
