<?xml version="1.0" encoding="utf-8"?>
<!-- Generator: Adobe Illustrator 21.1.0, SVG Export Plug-In . SVG Version: 6.00 Build 0)  -->
<svg version="1.1" id="Слой_1" xmlns="http://www.w3.org/2000/svg" xmlns:xlink="http://www.w3.org/1999/xlink" x="0px" y="0px"
	 viewBox="0 0 512 512" style="enable-background:new 0 0 512 512;" xml:space="preserve">
<path d="M396,260c16.543,0,30-13.457,30-30V60h10c5.523,0,10-4.477,10-10V10c0-5.523-4.477-10-10-10H76c-5.523,0-10,4.477-10,10v40
	c0,5.523,4.477,10,10,10h10v50c0,5.523,4.477,10,10,10s10-4.477,10-10V60h300v170c0,5.516-4.484,10-10,10h-10.227
	C382.203,158.852,331.504,80,256,80c-76.887,0-126.285,80.719-129.773,160H116c-5.516,0-10-4.484-10-10v-40c0-5.523-4.477-10-10-10
	s-10,4.477-10,10v40c0,16.543,13.457,30,30,30h10.211c0.629,15.789,2.684,32.328,5.715,46.285C117.305,308.277,106,320.84,106,336
	v20c0,5.523,4.477,10,10,10h13.484c7.691,32.852,27.656,62.758,55.023,82.391l-17.926,50.25c-1.094,3.063-0.629,6.465,1.246,9.121
	C169.699,510.418,172.75,512,176,512h160c3.25,0,6.301-1.582,8.172-4.238c1.875-2.656,2.34-6.059,1.246-9.121l-17.926-50.25
	c27.371-19.637,47.332-49.543,55.023-82.391H396c5.523,0,10-4.477,10-10v-20c0-15.16-11.305-27.723-25.926-29.715
	c3.031-13.957,5.082-30.496,5.715-46.285H396z M86,40V20h340v20H86z M256,100c60.652,0,110,67.289,110,150
	c0,18.816-2.441,39.902-6.367,56h-20.961c4.559-16.75,7.328-37.309,7.328-56c0-59.148-33.141-130-90-130c-56.082,0-90,69.559-90,130
	c0,18.691,2.77,39.25,7.328,56h-20.961c-3.926-16.098-6.367-37.184-6.367-56C146,167.289,195.348,100,256,100z M326,250
	c0,18.848-3.195,40.371-8.156,56H194.156c-4.961-15.625-8.156-37.152-8.156-56c0-45.617,24.898-110,70-110
	C301.043,140,326,204.27,326,250z M190.184,492l11.785-33.031C218.98,467.516,237.438,472,256,472s37.02-4.484,54.031-13.031
	L321.816,492H190.184z M256,452c-49.965,0-92.773-38.594-105.887-86.012h211.77C348.777,413.398,305.965,452,256,452z M386,336v10
	H126v-10c0-5.516,4.484-10,10-10h240C381.516,326,386,330.484,386,336z"/>
<path d="M106,150c0,5.523-4.477,10-10,10s-10-4.477-10-10s4.477-10,10-10S106,144.477,106,150z"/>
</svg>
