<?xml version="1.0" encoding="utf-8"?>
<!-- Generator: Adobe Illustrator 21.1.0, SVG Export Plug-In . SVG Version: 6.00 Build 0)  -->
<svg version="1.1" id="Layer_1" xmlns="http://www.w3.org/2000/svg" xmlns:xlink="http://www.w3.org/1999/xlink" x="0px" y="0px"
	 viewBox="0 0 402 402" style="enable-background:new 0 0 402 402;" xml:space="preserve">
<path d="M261.568,159.572c24.919,0.002,45.122-20.197,45.124-45.116c0.002-24.919-20.197-45.122-45.116-45.124
	c-24.919-0.002-45.122,20.197-45.124,45.116c0,0.001,0,0.003,0,0.004C216.481,139.358,236.662,159.541,261.568,159.572z
	 M261.568,83.336c17.187-0.002,31.122,13.929,31.124,31.116c0.002,17.187-13.929,31.122-31.116,31.124s-31.122-13.929-31.124-31.116
	c0-0.003,0-0.005,0-0.008c0.02-17.177,13.939-31.098,31.116-31.12V83.336z"/>
<path d="M395,388h-76.4V231.256l20.508,10.864c3.416,1.81,7.654,0.508,9.464-2.908c1.81-3.416,0.508-7.654-2.908-9.464l0,0
	L290.66,200.62v-1.156c3.57-1.222,7.06-2.669,10.448-4.332L316.976,211c2.73,2.734,7.16,2.737,9.894,0.006
	c0.002-0.002,0.004-0.004,0.006-0.006l31.244-31.244c2.734-2.73,2.737-7.16,0.006-9.894c-0.002-0.002-0.004-0.004-0.006-0.006
	l-15.868-15.868c1.663-3.388,3.11-6.877,4.332-10.448H369c3.866,0,7-3.134,7-7l0,0V92.36c0-3.866-3.134-7-7-7h-22.4
	c-1.222-3.571-2.669-7.06-4.332-10.448l15.868-15.868c2.734-2.73,2.737-7.16,0.006-9.894c-0.002-0.002-0.004-0.004-0.006-0.006
	L326.892,17.9c-2.777-2.629-7.123-2.629-9.9,0l-15.868,15.868c-3.389-1.661-6.878-3.108-10.448-4.332V7c0-3.866-3.134-7-7-7h-44.2
	c-3.866,0-7,3.134-7,7v22.436c-3.57,1.222-7.06,2.669-10.448,4.332L206.16,17.9c-2.73-2.734-7.16-2.737-9.894-0.006
	c-0.002,0.002-0.004,0.004-0.006,0.006L165,49.144c-2.734,2.734-2.734,7.166-0.001,9.899c0,0,0,0,0.001,0.001l15.872,15.868
	c-1.663,3.388-3.11,6.877-4.332,10.448h-22.424c-3.866,0-7,3.134-7,7v44.184c0,3.866,3.134,7,7,7h22.436
	c1.222,3.571,2.669,7.06,4.332,10.448L165,169.86c-0.673,0.678-1.199,1.487-1.548,2.376L56.324,229.732
	c-3.436,1.772-4.786,5.993-3.014,9.43c1.772,3.436,5.993,4.786,9.43,3.014c0.067-0.035,0.134-0.071,0.2-0.107l20.332-10.912V388H7
	c-3.866,0-7,3.134-7,7s3.134,7,7,7h388c3.866,0,7-3.134,7-7S398.866,388,395,388L395,388z M194.436,160.244
	c2.224-2.226,2.688-5.663,1.136-8.4c-3.069-5.402-5.457-11.163-7.112-17.152c-0.837-3.036-3.599-5.138-6.748-5.136h-20.596V99.36
	h20.596c3.149,0.002,5.911-2.1,6.748-5.136c1.655-5.989,4.043-11.75,7.112-17.152c1.552-2.737,1.088-6.174-1.136-8.4L179.86,54.104
	l21.348-21.344L215.8,47.32c2.225,2.225,5.662,2.691,8.4,1.14c5.401-3.069,11.16-5.458,17.148-7.112
	c3.032-0.841,5.129-3.602,5.128-6.748V14h30.184v20.6c0,3.15,2.104,5.911,5.14,6.748c5.989,1.653,11.75,4.042,17.152,7.112
	c2.738,1.551,6.175,1.085,8.4-1.14l14.572-14.572l21.344,21.344l-14.572,14.572c-2.222,2.227-2.687,5.663-1.136,8.4
	c3.069,5.402,5.457,11.163,7.112,17.152c0.837,3.036,3.599,5.138,6.748,5.136h20.596v30.184H341.42
	c-3.149-0.002-5.911,2.1-6.748,5.136c-1.655,5.989-4.043,11.75-7.112,17.152c-1.551,2.737-1.086,6.173,1.136,8.4l14.572,14.572
	l-21.344,21.34l-14.572-14.568c-2.227-2.222-5.661-2.689-8.4-1.14c-5.402,3.074-11.163,5.468-17.152,7.128
	c-3.035,0.838-5.136,3.6-5.136,6.748v20.6h-30.188v-20.6c0-3.148-2.101-5.91-5.136-6.748c-5.985-1.655-11.742-4.044-17.14-7.112
	c-2.738-1.549-6.173-1.082-8.4,1.14l-14.572,14.572l-21.348-21.344L194.436,160.244z M97.272,223.644l72.648-38.984L196.26,211
	c2.73,2.734,7.16,2.737,9.894,0.006c0.002-0.002,0.004-0.004,0.006-0.006l15.868-15.868c3.388,1.663,6.878,3.11,10.448,4.332v22.44
	c0,3.866,3.134,7,7,7h44.184c3.866,0,7-3.134,7-7v-5.44l13.94,7.376V388h-58.844v-71.6c0-3.866-3.134-7-7-7h-75.66
	c-3.866,0-7,3.134-7,7V388H97.272V223.644z M231.756,388h-61.66v-64.6h61.66V388z"/>
</svg>
