<?xml version="1.0" encoding="utf-8"?>
<!-- Generator: Adobe Illustrator 21.1.0, SVG Export Plug-In . SVG Version: 6.00 Build 0)  -->
<svg version="1.1" id="Слой_1" xmlns="http://www.w3.org/2000/svg" xmlns:xlink="http://www.w3.org/1999/xlink" x="0px" y="0px"
	 viewBox="0 0 112.062 82.297" style="enable-background:new 0 0 112.062 82.297;" xml:space="preserve">
<path d="M110.093,10.506c1.1,0,1.851-0.867,1.969-1.81V8.177c-0.109-0.852-0.776-1.65-2.208-1.81l-11.8-0.019
	C97.321,3.198,93.121,0,89.518,0H35.019c-2.137,0-4.619,1.25-5.75,2.348C25.4,6.106,27.88,6.128,25.09,6.487
	c-1.47,0.189-2.37,0.139-3.768,0.39c-7.147,1.282-13.32,5.592-17.255,11.637c-1.131,1.738-2.008,3.588-2.726,5.591
	C0.769,25.703,0,29.012,0,31.08c0,4.827,0.293,8.297,2.406,12.477c0.705,1.393,1.297,2.686,2.218,3.91
	c2.073,2.756,3.315,4.21,6.192,6.284c4.246,3.062,9.247,4.907,15.01,4.907V79.67c0,0.664,0.192,1.368,0.437,1.752
	c0.194,0.305,0.869,0.875,1.314,0.875H81.42c1.082,0,1.97-0.888,1.97-1.97V58.658h27.14c0.743,0,1.388-0.763,1.532-1.636V56.31
	c-0.164-0.943-1.021-1.81-3.064-1.81H83.39v-8.974h26.703c1.28,0,1.955-0.994,1.969-2.01v-0.08c-0.021-1.036-0.73-2.069-2.188-2.069
	H83.39v-3.502h12.695c1.458,0,2.626-0.753,2.626-2.188V23.858c2.302,0,10.941,0.326,12.303-0.392
	c0.642-0.337,0.96-0.867,1.048-1.424v-0.673c-0.133-0.886-0.769-1.67-1.532-1.67H83.39v-9.193H110.093z M88.643,4.159
	c1.945,0,3.712,0.542,4.815,2.189h-8.755C85.37,5.088,87.104,4.159,88.643,4.159z M25.826,41.367c-4.599,0-8.536-4.103-8.536-8.755
	c0-4.74,3.771-8.754,8.536-8.754V41.367z M25.826,19.699c-6.873,0-12.694,5.906-12.694,12.476c0,3.674,1.219,6.933,3.658,9.474
	c2.147,2.236,5.716,3.877,9.036,3.877V54.5c-11.884,0-21.668-10.081-21.668-21.012c0-4.85,0.666-8.278,3.073-12.249
	c1.644-2.714,3.865-5.067,6.512-6.839c1.139-0.763,2.048-1.354,3.329-1.924c2.494-1.109,5.911-1.906,8.754-1.97V19.699z
	 M79.231,10.287v67.851H29.985V10.287c0-2.248,0.803-3.864,2.086-4.917c1.666-1.369,3.154-1.211,6.012-1.211h42.899
	C79.912,5.757,79.231,7.626,79.231,10.287z M94.552,23.858v9.849H83.39v-9.849H94.552z"/>
</svg>
