<?xml version="1.0" encoding="utf-8"?>
<!-- Generator: Adobe Illustrator 21.1.0, SVG Export Plug-In . SVG Version: 6.00 Build 0)  -->
<svg version="1.1" id="Слой_1" xmlns="http://www.w3.org/2000/svg" xmlns:xlink="http://www.w3.org/1999/xlink" x="0px" y="0px"
	 viewBox="0 0 32 38" style="enable-background:new 0 0 32 38;" xml:space="preserve">
<g id="Слой_x0020_1">
	<g id="_1452159216">
		<path d="M11.083,18.024c-0.271,0.323-0.755,0.367-1.078,0.096c-0.323-0.271-0.367-0.755-0.096-1.078l0.099-0.117
			c0.271-0.324,0.754-0.367,1.078-0.096c0.323,0.271,0.367,0.755,0.096,1.078L11.083,18.024z M13.01,16.446
			c-0.374,0.196-0.838,0.053-1.034-0.321c-0.196-0.374-0.053-0.838,0.321-1.034c0.559-0.296,1.163-0.531,1.792-0.688l0.035-0.007
			c0.607-0.148,1.235-0.229,1.875-0.229c2.176,0,4.15,0.885,5.578,2.312c1.431,1.427,2.316,3.402,2.316,5.581
			c0,2.176-0.885,4.15-2.312,5.578l-0.014,0.014c-1.427,1.422-3.397,2.302-5.568,2.302c-2.179,0-4.154-0.885-5.581-2.312
			l-0.04-0.043c-1.404-1.425-2.272-3.382-2.272-5.539c0-0.438,0.039-0.883,0.113-1.321c0.074-0.438,0.185-0.868,0.33-1.283
			c0.138-0.398,0.576-0.608,0.974-0.47c0.399,0.138,0.608,0.576,0.47,0.974c-0.113,0.327-0.204,0.675-0.265,1.034
			c-0.056,0.336-0.087,0.695-0.087,1.066c0,1.736,0.693,3.31,1.819,4.457l0.043,0.04c1.148,1.148,2.74,1.862,4.496,1.862
			c1.748,0,3.334-0.706,4.482-1.845l0.014-0.014c1.151-1.153,1.862-2.745,1.862-4.5c0-1.756-0.714-3.347-1.862-4.496
			c-1.147-1.151-2.74-1.862-4.496-1.862c-0.522,0-1.026,0.062-1.5,0.176l-0.038,0.011C13.95,16.017,13.462,16.207,13.01,16.446z"/>
		<path d="M1.582,0h28.836c0.394,0,0.755,0.163,1.012,0.42c0.26,0.26,0.42,0.618,0.42,1.012v35.138c0,0.39-0.16,0.75-0.42,1.008
			C31.168,37.839,30.809,38,30.418,38H1.582c-0.394,0-0.752-0.16-1.012-0.42c-0.257-0.257-0.42-0.618-0.42-1.012V1.431
			c0-0.392,0.163-0.749,0.42-1.008C0.833,0.163,1.19,0,1.582,0z M30.314,1.535H1.686v34.929h28.628V1.535z"/>
		<polygon points="0.918,6.307 31.082,6.307 31.082,7.842 0.918,7.842 		"/>
		<polygon points="6.294,0.768 6.294,7.075 4.759,7.075 4.759,0.768 		"/>
		<ellipse cx="8.903" cy="3.905" rx="0.768" ry="0.751"/>
		<path d="M12.328,4.672c-0.423,0-0.768-0.344-0.768-0.768c0-0.423,0.345-0.768,0.768-0.768h15.273c0.423,0,0.768,0.345,0.768,0.768
			c0,0.423-0.344,0.768-0.768,0.768H12.328z"/>
		<path d="M16.001,10.875c3.084,0,5.883,1.254,7.907,3.279c2.025,2.021,3.278,4.819,3.278,7.907c0,3.083-1.253,5.88-3.277,7.905
			c-2.029,2.027-4.825,3.28-7.908,3.28c-3.088,0-5.885-1.253-7.909-3.277c-2.023-2.025-3.277-4.823-3.277-7.908
			c0-3.088,1.253-5.886,3.277-7.91S12.913,10.875,16.001,10.875z M22.824,15.235c-1.743-1.745-4.156-2.824-6.823-2.824
			c-2.665,0-5.079,1.082-6.824,2.827S6.35,19.396,6.35,22.062c0,2.667,1.079,5.08,2.823,6.823c1.749,1.745,4.163,2.827,6.828,2.827
			c2.667,0,5.081-1.079,6.823-2.823c1.748-1.746,2.827-4.159,2.827-6.826C25.651,19.396,24.569,16.982,22.824,15.235z"/>
	</g>
</g>
</svg>
