<?xml version="1.0" encoding="utf-8"?>
<!-- Generator: Adobe Illustrator 21.1.0, SVG Export Plug-In . SVG Version: 6.00 Build 0)  -->
<svg version="1.1" id="Слой_1" xmlns="http://www.w3.org/2000/svg" xmlns:xlink="http://www.w3.org/1999/xlink" x="0px" y="0px"
	 viewBox="0 0 512 512" style="enable-background:new 0 0 512 512;" xml:space="preserve">
<path d="M502,492h-44v-13.281c0-5.523-4.477-10-10-10s-10,4.477-10,10V492H266v-13.281c0-5.523-4.477-10-10-10s-10,4.477-10,10V492
	H74v-13.281c0-5.523-4.477-10-10-10s-10,4.477-10,10V492H10c-5.523,0-10,4.477-10,10s4.477,10,10,10h492c5.523,0,10-4.477,10-10
	S507.523,492,502,492z"/>
<path d="M502,428H359.402c27.059-10.945,52.336-26.242,74.973-45.539v8.238c0,5.523,4.477,10,10,10s10-4.477,10-10v-31.398
	c0-5.523-4.477-10-10-10h-31.398c-5.523,0-10,4.477-10,10s4.477,10,10,10h5.977C373.223,407.305,316.203,428,256,428
	s-117.223-20.695-162.953-58.699h5.977c5.523,0,10-4.477,10-10s-4.477-10-10-10H67.625c-5.523,0-10,4.477-10,10v31.398
	c0,5.523,4.477,10,10,10s10-4.477,10-10v-8.238c22.637,19.293,47.914,34.59,74.973,45.539H50c-5.523,0-10,4.477-10,10
	s4.477,10,10,10h100.129v13.281c0,5.523,4.477,10,10,10c5.52,0,10-4.477,10-10V448h172v13.281c0,5.523,4.477,10,10,10
	c5.52,0,10-4.477,10-10V448H502c5.523,0,10-4.477,10-10S507.523,428,502,428z"/>
<path d="M10,448c2.629,0,5.211-1.07,7.07-2.93S20,440.629,20,438s-1.07-5.211-2.93-7.07S12.629,428,10,428s-5.211,1.07-7.07,2.93
	C1.07,432.789,0,435.371,0,438s1.07,5.211,2.93,7.07C4.789,446.93,7.371,448,10,448z"/>
<path d="M256,385c56.965,0,103.305-46.227,103.305-103.051c0-23.543-8.16-46.543-22.992-64.809c-0.02-0.027-0.039-0.051-0.059-0.078
	l-64.102-82.309c-3.824-4.914-9.586-7.738-15.813-7.754c-0.016,0-0.031,0-0.051,0c-6.203,0-11.965,2.797-15.801,7.68l-64.371,81.863
	c-0.145,0.188-0.285,0.375-0.414,0.57c-14.848,18.277-23.008,41.262-23.008,64.836C152.695,338.773,199.035,385,256,385z
	 M191.734,229.102c0.25-0.301,0.48-0.617,0.691-0.941l63.809-81.152c0.027-0.012,0.09-0.012,0.141,0.031l63.902,82.059
	c0.109,0.148,0.219,0.297,0.34,0.438c12.051,14.746,18.688,33.363,18.688,52.414C339.305,327.746,301.934,365,256,365
	c-45.938,0-83.309-37.254-83.309-83.051C172.695,262.691,179.457,243.926,191.734,229.102z"/>
<path d="M430,203.652c45.215,0,82-36.695,82-81.801c0-18.68-6.473-36.93-18.23-51.426c-0.012-0.016-0.027-0.031-0.039-0.047
	L444.27,6.863c-3.387-4.348-8.492-6.852-14-6.863c-0.016,0-0.031,0-0.043,0c-5.496,0-10.594,2.477-13.992,6.797l-49.672,63.172
	c-0.125,0.16-0.246,0.324-0.363,0.492C354.457,84.957,348,103.172,348,121.852C348,166.957,384.785,203.652,430,203.652z
	 M382.168,82.527c0.227-0.273,0.441-0.563,0.637-0.855l47.414-60.301l47.559,61.074c0.102,0.137,0.207,0.273,0.316,0.406
	c8.969,10.973,13.906,24.824,13.906,39c0,34.078-27.813,61.801-62,61.801s-62-27.723-62-61.801
	C368,107.52,373.031,93.555,382.168,82.527z"/>
<path d="M82,203.652c45.215,0,82-36.695,82-81.801c0-18.68-6.457-36.895-18.199-51.391c-0.117-0.168-0.238-0.332-0.363-0.492
	L95.766,6.797C92.367,2.477,87.27,0,81.773,0c-0.012,0-0.027,0-0.043,0c-5.508,0.012-10.613,2.516-14,6.863L18.27,70.379
	c-0.012,0.016-0.023,0.031-0.035,0.047C6.473,84.922,0,103.172,0,121.852C0,166.957,36.785,203.652,82,203.652z M33.906,82.852
	c0.109-0.133,0.215-0.27,0.316-0.406l47.559-61.074l47.414,60.297c0.195,0.297,0.406,0.586,0.637,0.863
	C138.969,93.555,144,107.52,144,121.852c0,34.078-27.813,61.801-62,61.801s-62-27.723-62-61.801
	C20,107.676,24.938,93.824,33.906,82.852z"/>
<path d="M256,330c26.551,0,48.152-21.555,48.152-48.051c0-5.523-4.477-10-10-10c-5.52,0-10,4.477-10,10
	C284.152,297.418,271.523,310,256,310c-5.523,0-10,4.477-10,10S250.477,330,256,330z"/>
</svg>
